<svg class="svg-player" x="0px" y="0px" viewBox="0 0 1139 308" xmlns="http://www.w3.org/2000/svg" fill-rule="evenodd" clip-rule="evenodd" stroke-miterlimit="1.5">
  <g class="left-speaker" stroke="#000" stroke-width="2">
    <g fill="#fff">
      <path d="M1.803 1.803h204.57v303.57H1.802z"/>
      <path d="M234.72 29.705L206.818 1.803v303.57l27.902-27.903V29.705z" stroke-linejoin="round"/>
    </g>
    <circle cx="103.224" cy="73.932" r="32.731" fill="#fff"/>
    <circle cx="103.224" cy="73.932" r="40.629" fill="none"/>
    <circle class="left-speaker__high-speaker" cx="103.224" cy="73.932" r="11.479" fill="#fff"/>
    <g>
      <circle cx="104.512" cy="199.705" r="62.564" fill="#fff"/>
      <circle cx="104.512" cy="199.705" r="70.978" fill="none"/>
      <circle class="left-speaker__low-speaker" cx="104.512" cy="199.705" r="18.243" fill="#fff"/>
    </g>
  </g>
  <g class="right-speaker" stroke="#000" stroke-width="2">
    <g fill="#fff">
      <path d="M932.447 1.803h204.57v303.57h-204.57z"/>
      <path d="M904.098 29.705L932 1.803v303.57l-27.902-27.903V29.705z" stroke-linejoin="round"/>
    </g>
    <circle cx="1035.59" cy="73.932" r="32.731" fill="#fff"/>
    <circle cx="1035.59" cy="73.932" r="40.629" fill="none"/>
    <circle class="right-speaker__high-speaker" cx="1035.59" cy="73.932" r="11.479" fill="#fff"/>
    <g>
      <circle cx="1034.31" cy="199.705" r="62.564" fill="#fff"/>
      <circle cx="1034.31" cy="199.705" r="70.978" fill="none"/>
      <circle class="right-speaker__low-speaker" cx="1034.31" cy="199.705" r="18.243" fill="#fff"/>
    </g>
  </g>
  <g class="player">
    <path fill="#fff" d="M290.866 84.924h553.846v198.643H290.866z"/>
    <path d="M844.712 283.567H290.866V84.924h553.846v198.643zM292.866 86.924v194.643h549.846V86.924H292.866z"/>
    <g class="svg-player__eject">
      <path fill="#fff" d="M482.024 130.626h171.53V265.58h-171.53z"/>
      <path d="M653.553 265.58h-171.53V130.627h171.53V265.58zm-169.53-132.954V263.58h167.53V132.627h-167.53z"/>
      <path fill="#fff" d="M489.03 161.266h157.874v87.93H489.03z"/>
      <path d="M646.904 249.196H489.03v-87.93h157.874v87.93zm-155.875-85.93v83.93h153.874v-83.93H491.03z"/>
      <path d="M637.157 170.548c0-2.127-1.726-3.854-3.853-3.854H502.63c-2.128 0-3.855 1.727-3.855 3.854v69.366c0 2.127 1.727 3.854 3.854 3.854h130.674c2.127 0 3.853-1.727 3.853-3.854v-69.366z" fill="#fff"/>
      <path d="M633.403 166.696l.1.003.097.006.097.008.097.01.096.015.095.015.095.018.094.02.092.023.092.025.09.028.09.03.09.03.088.034.087.036.086.037.084.04.083.04.083.045.08.045.08.048.08.05.078.05.076.053.075.054.072.057.072.058.07.06.07.06.068.064.066.064.065.066.063.068.06.07.06.07.06.072.055.073.056.075.053.076.05.078.05.08.046.08.046.08.043.082.042.084.04.085.037.086.036.086.033.088.032.09.03.09.026.09.026.092.023.092.02.094.017.094.016.096.013.096.01.096.01.098.006.098.004.1v69.564l-.004.1-.006.097-.01.098-.01.097-.013.096-.016.096-.018.095-.02.094-.024.093-.025.092-.026.09-.03.09-.03.09-.034.087-.036.087-.037.086-.04.085-.042.083-.043.083-.046.082-.047.08-.05.08-.05.076-.054.077-.055.075-.055.073-.058.072-.06.07-.06.07-.064.068-.065.066-.066.063-.068.063-.07.062-.07.06-.072.058-.073.056-.076.055-.076.053-.078.05-.08.05-.08.047-.08.046-.083.043-.083.042-.085.04-.087.037-.087.036-.088.034-.09.03-.09.03-.09.028-.092.025-.092.022-.094.02-.095.018-.095.016-.096.013-.097.01-.097.01-.098.006-.1.004H502.53l-.1-.004-.097-.006-.098-.01-.097-.01-.096-.013-.095-.016-.094-.018-.094-.02-.094-.023-.092-.025-.09-.027-.09-.03-.09-.03-.088-.034-.087-.035-.086-.038-.085-.04-.085-.04-.082-.044-.082-.046-.08-.047-.078-.05-.077-.05-.076-.053-.076-.055-.074-.056-.072-.058-.07-.06-.07-.062-.067-.063-.066-.064-.064-.067-.063-.068-.062-.07-.06-.07-.057-.072-.057-.073-.053-.075-.053-.077-.05-.077-.05-.078-.048-.08-.045-.08-.043-.084-.042-.083-.04-.085-.037-.086-.035-.087-.034-.088-.032-.09-.03-.09-.027-.09-.023-.093-.023-.093-.02-.093-.02-.094-.014-.095-.014-.095-.01-.097-.01-.097-.006-.097-.004-.1V170.45l.004-.098.006-.098.01-.098.01-.096.014-.096.015-.096.018-.094.02-.094.024-.092.024-.092.03-.09.028-.09.03-.09.035-.088.035-.087.038-.087.04-.085.04-.084.045-.082.046-.08.047-.08.05-.08.05-.078.054-.076.054-.075.058-.073.058-.073.06-.07.06-.07.064-.067.064-.066.067-.065.068-.064.07-.06.07-.06.072-.06.074-.056.075-.054.075-.053.077-.05.08-.05.08-.048.08-.045.083-.044.084-.04.084-.04.085-.038.086-.036.088-.034.09-.03.09-.03.09-.027.092-.024.093-.023.093-.02.094-.018.095-.016.096-.015.097-.01.098-.01.098-.006.1-.004.1-.002h130.674l.1.002zm-130.762 1.998h-.06l-.048.003-.048.003-.047.004-.046.006-.045.006-.046.008-.046.008-.045.01-.045.01-.044.013-.042.013-.043.013-.042.017-.043.016-.04.016-.042.018-.04.018-.04.02-.04.02-.04.023-.038.022-.038.024-.037.024-.037.025-.036.027-.036.028-.035.027-.033.03-.033.03-.033.03-.03.03-.032.033-.03.033-.03.033-.03.035-.028.035-.027.036-.027.038-.025.036-.024.037-.023.04-.023.038-.022.04-.02.04-.02.04-.02.04-.018.04-.017.042-.016.042-.015.043-.014.042-.013.043-.01.044-.012.045-.01.044-.01.044-.006.046-.007.046-.005.047-.004.046-.002.048-.002.05v69.462l.002.05.003.047.005.046.005.046.007.047.007.044.01.045.01.044.01.045.01.042.014.043.014.043.015.043.016.043.017.04.018.043.02.04.02.04.02.04.022.04.023.037.023.038.025.04.026.035.027.037.027.035.028.035.03.035.03.033.03.032.03.032.033.032.034.03.033.03.034.03.036.027.036.027.036.027.037.026.037.024.038.024.04.024.038.02.04.022.04.02.04.02.04.017.042.017.043.016.042.015.043.015.044.013.043.012.044.01.044.01.045.01.045.007.045.006.048.005.047.005.047.002.048.002H633.352l.05-.002.046-.002.047-.005.047-.005.046-.006.045-.008.046-.01.044-.01.043-.01.044-.012.045-.013.043-.014.042-.014.042-.016.042-.017.04-.018.04-.02.04-.02.04-.02.04-.02.038-.024.038-.023.037-.024.038-.026.036-.027.036-.027.035-.028.035-.028.034-.03.032-.032.032-.03.03-.032.032-.033.03-.034.028-.034.03-.035.026-.036.026-.034.025-.037.026-.04.024-.036.023-.04.022-.04.02-.04.02-.038.02-.04.017-.042.017-.04.015-.043.015-.042.014-.043.013-.043.012-.043.01-.046.01-.045.008-.046.008-.045.006-.048.006-.047.004-.046.003-.048.002-.048V170.5l-.002-.05-.003-.046-.004-.047-.006-.047-.006-.047-.008-.044-.008-.046-.01-.046-.01-.045-.013-.042-.013-.043-.014-.042-.015-.043-.016-.043-.018-.04-.018-.043-.02-.04-.018-.04-.02-.04-.023-.04-.023-.038-.024-.04-.024-.036-.026-.037-.026-.036-.027-.034-.03-.035-.027-.033-.03-.034-.03-.033-.033-.033-.03-.03-.034-.03-.035-.03-.034-.03-.034-.027-.035-.028-.036-.026-.036-.026-.038-.024-.038-.024-.038-.023-.04-.023-.04-.02-.04-.02-.04-.02-.04-.018-.042-.017-.042-.017-.043-.015-.042-.012-.044-.013-.042-.012-.045-.01-.045-.01-.044-.01-.046-.007-.046-.006-.047-.006-.047-.004-.048-.003-.048-.002h-130.71z"/>
      <circle cx="610.538" cy="194.519" r="16.256" fill="#fff"/>
      <path d="M610.748 178.264l.21.003.208.007.208.01.207.01.208.016.206.017.205.02.203.02.204.026.203.027.202.03.2.032.202.034.2.037.198.04.198.042.197.044.196.045.195.05.195.05.193.054.192.055.19.06.192.06.19.062.187.065.188.067.186.07.186.07.184.074.183.077.18.08.182.08.18.082.178.084.177.087.176.09.174.09.174.092.172.095.17.097.17.1.168.1.167.103.167.105.164.106.164.11.162.11.16.113.158.114.157.117.157.118.155.12.152.12.152.124.15.125.148.128.146.13.146.13.143.13.14.135.142.136.138.136.137.14.136.14.134.14.132.145.13.146.128.146.127.15.125.148.123.152.122.153.12.154.118.155.116.157.113.16.112.16.11.16.11.163.106.164.106.165.103.167.1.168.1.17.096.17.095.172.094.174.09.174.09.176.086.177.084.18.083.178.08.182.08.18.075.184.074.184.07.185.07.186.068.19.065.187.062.19.06.19.06.19.055.193.053.194.052.194.05.195.045.196.045.196.04.198.04.2.038.198.034.2.033.202.03.202.026.203.025.203.022.204.02.206.017.206.014.205.013.208.01.208.006.21.003.21v.42l-.004.208-.008.21-.01.207-.01.207-.015.207-.017.205-.02.205-.022.204-.025.204-.027.203-.03.203-.032.2-.034.202-.037.2-.04.198-.04.198-.046.198-.046.196-.048.195-.052.194-.053.193-.056.192-.057.19-.06.19-.064.19-.066.188-.067.188-.07.186-.07.185-.075.184-.076.184-.08.182-.08.18-.082.18-.084.178-.087.177-.09.177-.09.174-.092.175-.094.172-.097.17-.1.17-.1.168-.104.167-.105.166-.105.164-.11.163-.11.162-.112.16-.114.158-.117.157-.118.156-.12.155-.122.152-.123.152-.125.15-.127.148-.13.146-.13.147-.13.143-.135.142-.136.14-.137.14-.138.136-.14.136-.143.134-.144.132-.146.13-.146.13-.15.126-.148.125-.152.124-.152.122-.155.12-.156.118-.156.116-.158.114-.16.113-.162.11-.163.11-.163.105-.166.105-.166.103-.168.1-.17.1-.17.097-.172.095-.174.093-.174.09-.176.09-.177.086-.178.086-.18.082-.18.08-.182.08-.183.075-.184.074-.185.07-.185.07-.188.068-.188.065-.19.063-.19.06-.192.06-.192.055-.193.053-.195.053-.195.05-.196.045-.197.045-.198.04-.2.04-.198.038-.2.035-.202.033-.202.03-.203.026-.204.025-.204.02-.206.02-.206.018-.207.014-.206.012-.208.01-.21.006-.208.004h-.42l-.21-.004-.208-.007-.208-.01-.208-.01-.206-.015-.206-.017-.206-.02-.204-.02-.204-.026-.203-.027-.202-.03-.2-.032-.202-.034-.198-.036-.2-.04-.197-.04-.197-.046-.196-.046-.195-.05-.194-.05-.194-.054-.193-.056-.19-.058-.192-.06-.19-.064-.187-.065-.188-.067-.186-.07-.185-.07-.185-.075-.183-.076-.18-.08-.182-.08-.18-.08-.178-.086-.177-.086-.176-.09-.175-.09-.174-.092-.17-.095-.17-.097-.17-.1-.17-.1-.166-.103-.166-.105-.164-.106-.163-.11-.16-.11-.16-.112-.16-.114-.156-.116-.156-.118-.154-.12-.153-.122-.15-.123-.15-.124-.15-.127-.145-.13-.145-.13-.144-.132-.142-.134-.14-.136-.14-.137-.136-.137-.136-.14-.134-.143-.132-.143-.13-.146-.13-.145-.126-.15-.125-.148-.123-.152-.122-.152-.12-.155-.117-.156-.117-.157-.114-.158-.112-.16-.11-.162-.11-.163-.106-.164-.105-.166-.104-.167-.1-.168-.1-.17-.097-.17-.096-.172-.092-.174-.09-.173-.09-.176-.087-.176-.084-.178-.082-.18-.08-.18-.078-.182-.077-.183-.073-.183-.072-.185-.07-.186-.067-.188-.064-.188-.063-.19-.06-.19-.06-.19-.055-.193-.053-.193-.052-.195-.05-.196-.045-.196-.044-.197-.042-.197-.04-.2-.037-.198-.034-.2-.03-.202-.03-.202-.028-.202-.025-.204-.022-.204-.02-.205-.016-.206-.016-.208-.012-.207-.01-.208-.006-.21-.003-.208-.002-.21.003-.21.003-.21.007-.21.01-.207.01-.208.016-.206.016-.207.02-.206.02-.204.026-.204.027-.204.03-.202.03-.2.035-.202.037-.2.04-.198.042-.198.044-.197.046-.197.05-.195.05-.194.054-.194.056-.192.06-.19.06-.192.062-.19.065-.187.068-.19.07-.185.072-.185.073-.184.077-.183.078-.18.08-.182.083-.178.085-.18.087-.176.09-.176.09-.174.092-.174.095-.172.096-.17.1-.17.1-.168.103-.167.104-.166.106-.165.11-.163.11-.16.112-.16.114-.16.117-.157.117-.156.12-.155.122-.153.123-.152.125-.15.127-.148.13-.146.13-.145.13-.143.135-.142.136-.14.137-.14.14-.136.14-.137.14-.134.145-.133.145-.13.146-.13.15-.126.15-.124.15-.123.154-.122.154-.118.156-.118.157-.117.16-.114.16-.112.16-.11.164-.11.164-.105.166-.105.167-.103.17-.1.17-.1.17-.097.17-.095.175-.092.174-.09.175-.09.177-.087.18-.084.178-.083.18-.08.182-.08.183-.076.184-.073.184-.07.186-.07.188-.068.188-.065.19-.063.19-.06.19-.06.193-.055.193-.054.194-.052.195-.05.196-.045.197-.045.198-.042.2-.04.198-.037.202-.034.2-.032.203-.03.203-.027.204-.025.204-.022.206-.02.206-.016.206-.015.208-.012.208-.01.208-.006.21-.003.21-.002.21.002zm-.395 2l-.184.003-.184.006-.183.008-.182.01-.18.014-.18.015-.18.016-.18.02-.18.02-.177.025-.177.027-.177.028-.176.03-.175.033-.176.034-.173.037-.172.037-.17.04-.172.044-.17.046-.17.047-.168.05-.168.05-.167.053-.165.055-.166.058-.163.06-.164.06-.163.063-.16.066-.16.066-.16.07-.16.07-.156.072-.156.074-.154.076-.154.078-.153.08-.153.08-.152.084-.15.085-.148.088-.147.088-.147.09-.145.092-.144.094-.143.095-.14.097-.14.1-.14.1-.138.1-.137.105-.135.104-.135.106-.132.11-.132.11-.13.11-.128.113-.127.114-.126.116-.126.118-.123.12-.12.12-.122.122-.118.123-.117.124-.117.126-.114.127-.113.13-.112.13-.11.13-.108.133-.107.135-.105.136-.104.137-.102.138-.1.14-.1.14-.096.142-.095.143-.093.144-.092.144-.09.147-.088.148-.087.15-.085.15-.083.15-.082.152-.08.153-.077.154-.076.155-.074.156-.073.158-.07.158-.07.16-.065.16-.065.16-.063.162-.06.163-.06.164-.057.165-.055.164-.053.167-.05.17-.05.167-.047.17-.045.17-.043.17-.04.172-.04.172-.036.174-.033.174-.033.174-.03.176-.028.177-.026.177-.024.178-.022.178-.02.18-.016.18-.015.18-.013.182-.01.182-.008.183-.006.183-.004.184v.368l.004.184.006.184.008.183.01.182.013.182.015.18.017.18.02.18.02.178.025.178.026.177.028.177.03.176.033.175.034.174.038.173.038.173.04.17.044.173.045.17.047.17.05.17.05.166.053.167.055.165.057.165.06.165.06.163.063.163.065.16.066.16.07.16.07.16.073.156.074.155.076.155.078.154.08.154.082.152.083.15.085.15.087.15.088.146.09.147.092.145.094.144.096.143.097.142.1.14.1.14.1.137.105.137.105.136.107.135.108.134.11.13.11.13.114.13.114.127.117.128.117.124.118.123.12.122.123.12.124.12.125.117.125.116.127.114.13.113.13.11.13.11.133.11.135.106.135.106.137.102.138.102.14.1.14.1.14.096.144.095.144.094.145.09.146.09.147.09.15.086.15.085.15.084.152.082.152.08.154.077.155.076.157.073.157.073.16.07.158.07.16.065.16.066.164.063.163.06.162.06.166.056.165.055.167.054.168.05.168.05.17.047.17.046.17.043.172.04.173.038.174.037.175.035.174.032.175.03.176.03.177.024.178.024.18.022.18.02.18.016.18.015.18.013.183.01.183.008.183.006.183.004h.369l.184-.004.184-.006.182-.008.182-.01.182-.013.18-.015.18-.017.18-.018.178-.022.18-.024.175-.025.176-.028.175-.03.176-.032.175-.035.174-.037.173-.038.172-.04.17-.044.17-.045.17-.046.168-.05.167-.05.167-.053.166-.054.165-.057.163-.06.164-.06.162-.064.16-.065.16-.065.16-.07.158-.07.158-.072.156-.074.155-.077.154-.078.152-.08.152-.08.152-.084.15-.084.148-.086.148-.09.146-.09.145-.09.144-.095.144-.095.142-.097.14-.1.14-.1.137-.1.137-.104.136-.107.134-.106.132-.108.132-.112.13-.11.13-.114.126-.114.126-.116.125-.118.124-.12.122-.12.12-.12.12-.124.117-.125.116-.126.113-.126.113-.13.112-.13.11-.13.108-.134.107-.134.105-.135.103-.135.103-.138.1-.14.1-.14.096-.142.094-.143.094-.144.092-.145.09-.146.09-.148.085-.15.085-.15.083-.15.082-.152.08-.154.077-.154.076-.155.075-.156.072-.158.07-.16.07-.158.065-.16.065-.16.063-.163.06-.163.06-.164.057-.164.055-.167.053-.167.05-.168.05-.168.047-.17.045-.17.043-.17.04-.172.04-.173.036-.173.035-.174.03-.175.03-.176.03-.176.025-.177.024-.178.02-.178.02-.18.017-.18.015-.18.013-.18.01-.184.008-.182.006-.183.003-.184v-.37l-.004-.184-.007-.183-.008-.183-.01-.182-.013-.182-.015-.18-.017-.18-.02-.18-.02-.178-.025-.178-.026-.177-.03-.177-.03-.176-.03-.174-.036-.174-.037-.174-.038-.173-.042-.172-.043-.17-.045-.172-.047-.17-.05-.167-.05-.17-.053-.166-.055-.166-.057-.164-.06-.164-.06-.164-.063-.162-.065-.16-.066-.16-.07-.16-.07-.158-.07-.158-.076-.156-.076-.155-.077-.154-.08-.153-.082-.153-.083-.15-.085-.15-.086-.15-.09-.146-.09-.146-.092-.145-.094-.145-.095-.143-.098-.14-.1-.142-.1-.14-.1-.137-.104-.137-.105-.135-.107-.133-.11-.133-.108-.132-.112-.13-.113-.13-.114-.126-.117-.126-.118-.125-.12-.123-.12-.122-.12-.12-.124-.12-.124-.117-.126-.116-.127-.114-.13-.113-.13-.11-.13-.11-.133-.11-.134-.106-.136-.105-.137-.105-.137-.102-.14-.1-.14-.1-.142-.096-.143-.095-.143-.094-.145-.092-.147-.09-.147-.088-.15-.087-.148-.084-.152-.083-.152-.082-.152-.078-.155-.078-.156-.076-.156-.074-.158-.073-.158-.07-.16-.068-.16-.066-.16-.065-.162-.062-.164-.06-.163-.06-.165-.057-.166-.054-.167-.053-.167-.05-.17-.05-.17-.047-.168-.045-.17-.042-.173-.04-.173-.04-.173-.036-.174-.035-.175-.032-.174-.03-.177-.028-.178-.026-.178-.023-.178-.022-.18-.02-.18-.016-.18-.016-.182-.013-.182-.01-.182-.007-.184-.006-.184-.004h-.369z"/>
      <circle cx="610.538" cy="194.519" r="9.053" fill="#fff"/>
      <path d="M610.655 185.466l.116.002.117.004.116.005.116.007.114.008.114.01.115.01.114.013.113.013.113.015.113.017.112.018.11.02.112.02.11.02.11.025.11.024.11.026.11.028.107.03.108.03.107.03.106.033.106.033.106.035.105.038.104.037.103.04.103.04.102.04.102.042.1.044.102.046.1.046.1.047.098.047.098.05.097.05.096.052.097.052.095.054.095.055.093.057.093.057.093.058.09.06.092.06.09.062.09.063.087.063.088.065.087.066.085.067.086.068.085.07.083.07.083.07.083.07.08.073.08.074.08.074.078.076.078.076.076.078.076.078.074.08.074.08.072.08.072.08.07.084.07.083.07.086.067.085.065.087.066.086.066.088.064.09.062.088.062.09.06.09.06.093.058.093.057.093.055.093.056.094.055.095.052.095.052.096.05.1.05.097.047.098.048.1.045.1.045.1.044.1.04.103.042.102.04.103.04.104.036.104.037.106.035.106.033.106.033.106.03.107.03.11.03.107.027.11.026.108.023.11.024.11.022.11.02.112.018.112.018.11.017.113.015.113.014.114.012.114.01.114.01.114.008.116.007.115.004.116.004.115.002.117v.233l-.002.116-.004.116-.005.116-.008.116-.008.115-.01.114-.01.114-.012.114-.014.113-.015.114-.017.113-.018.112-.02.11-.02.11-.02.112-.025.11-.024.11-.027.11-.027.108-.03.108-.03.108-.03.107-.033.106-.033.105-.035.106-.037.106-.037.104-.038.104-.04.103-.04.102-.043.1-.045.102-.045.1-.045.1-.048.1-.048.1-.05.097-.05.096-.053.096-.052.096-.054.095-.055.095-.056.093-.058.094-.058.093-.06.09-.06.092-.062.09-.062.088-.064.088-.065.088-.065.087-.066.086-.07.086-.068.084-.07.083-.07.082-.072.082-.072.08-.074.08-.074.08-.076.078-.076.077-.077.075-.078.076-.08.075-.08.074-.08.07-.08.073-.084.07-.083.07-.084.07-.085.067-.085.067-.087.065-.088.065-.088.064-.09.063-.09.062-.09.06-.09.06-.094.058-.093.057-.093.056-.095.056-.095.054-.096.052-.095.052-.097.05-.098.05-.1.048-.098.048-.1.045-.1.046-.102.044-.102.042-.102.04-.103.04-.104.04-.105.038-.105.036-.106.035-.106.034-.106.033-.107.03-.108.03-.108.03-.11.027-.11.026-.11.024-.11.024-.11.022-.11.02-.112.02-.112.017-.113.017-.113.015-.113.013-.114.012-.115.01-.114.01-.115.008-.117.007-.116.005-.116.004h-.115l-.117.002h-.117l-.116-.003-.116-.005-.116-.005-.115-.007-.116-.008-.113-.01-.115-.01-.113-.012-.115-.014-.113-.016-.112-.017-.112-.018-.112-.02-.11-.02-.112-.022-.11-.024-.11-.024-.11-.026-.108-.027-.108-.03-.108-.03-.107-.03-.106-.033-.106-.033-.105-.034-.105-.036-.104-.038-.104-.04-.103-.04-.103-.04-.102-.042-.1-.044-.102-.045-.1-.044-.1-.048-.097-.048-.098-.05-.098-.05-.096-.052-.096-.052-.095-.054-.095-.056-.093-.056-.093-.057-.093-.058-.092-.06-.09-.06-.09-.062-.09-.062-.088-.063-.088-.065-.086-.065-.086-.067-.085-.068-.085-.07-.083-.068-.083-.07-.08-.073-.082-.07-.08-.075-.08-.074-.077-.075-.078-.076-.076-.078-.075-.08-.074-.078-.073-.08-.072-.08-.072-.082-.07-.083-.07-.084-.07-.084-.067-.086-.066-.085-.066-.086-.065-.088-.064-.088-.063-.09-.062-.09-.06-.09-.06-.09-.057-.094-.057-.093-.056-.092-.055-.095-.054-.095-.052-.096-.052-.096-.05-.097-.05-.1-.048-.098-.047-.1-.045-.1-.045-.1-.044-.1-.042-.103-.04-.103-.04-.103-.04-.104-.037-.104-.037-.105-.035-.105-.033-.106-.033-.107-.032-.107-.03-.108-.028-.108-.028-.11-.026-.108-.024-.11-.024-.11-.02-.11-.022-.112-.02-.11-.017-.113-.018-.113-.015-.113-.014-.112-.012-.114-.01-.115-.01-.115-.007-.115-.007-.116-.005-.116-.003-.116-.002-.116v-.235l.002-.117.004-.116.006-.117.007-.115.008-.116.01-.114.01-.114.013-.114.014-.114.015-.113.017-.112.017-.11.02-.113.02-.11.02-.112.025-.11.024-.11.026-.11.028-.108.028-.108.03-.11.03-.106.034-.106.033-.106.035-.106.037-.105.037-.103.04-.104.04-.103.04-.102.042-.102.044-.1.045-.102.046-.1.048-.1.048-.097.05-.098.05-.1.052-.095.053-.096.055-.096.055-.095.056-.094.057-.093.058-.092.06-.09.06-.092.063-.09.063-.09.063-.087.064-.087.066-.086.066-.086.068-.084.07-.085.068-.082.07-.083.073-.08.072-.082.074-.08.075-.08.076-.077.077-.078.078-.076.078-.076.08-.074.08-.074.08-.072.08-.072.084-.07.083-.07.085-.07.085-.067.086-.066.086-.065.088-.065.088-.063.09-.063.09-.062.09-.06.09-.06.094-.058.093-.057.093-.056.095-.054.095-.054.096-.053.096-.053.098-.05.098-.05.098-.048.1-.048.1-.046.1-.045.1-.043.103-.042.102-.04.102-.04.104-.04.104-.037.105-.037.106-.034.107-.033.106-.033.107-.03.108-.03.108-.03.11-.027.108-.026.11-.024.11-.024.11-.022.112-.02.112-.02.112-.018.112-.017.113-.015.114-.013.112-.013.115-.01.114-.01.117-.008.115-.007.116-.005.116-.004.117-.002h.235zm-.21 2l-.09.002-.09.003-.092.005-.09.005-.09.006-.09.007-.088.01-.09.01-.087.01-.09.01-.086.014-.087.014-.087.016-.087.016-.085.017-.085.017-.086.02-.084.02-.085.02-.084.023-.083.023-.083.024-.083.025-.08.026-.083.028-.082.028-.08.03-.08.03-.082.03-.08.032-.078.033-.08.033-.077.035-.078.036-.077.036-.077.038-.076.038-.076.04-.075.04-.076.04-.074.043-.073.042-.074.044-.072.045-.07.046-.072.046-.07.048-.07.047-.07.05-.07.05-.068.05-.067.05-.068.053-.066.052-.067.054-.065.055-.063.055-.065.057-.063.057-.062.056-.062.058-.062.06-.058.058-.06.06-.06.062-.057.062-.058.062-.056.063-.055.065-.056.065-.055.064-.053.066-.053.067-.053.067-.05.067-.052.07-.05.07-.05.07-.046.068-.05.07-.045.072-.045.072-.045.073-.044.073-.042.073-.042.075-.04.075-.04.075-.04.076-.04.077-.037.077-.038.077-.035.078-.035.078-.034.08-.033.08-.032.078-.03.08-.03.082-.03.08-.028.08-.027.084-.027.083-.024.082-.024.083-.023.084-.024.085-.02.083-.02.085-.02.086-.018.087-.017.085-.015.087-.015.086-.014.087-.013.087-.012.088-.01.09-.01.088-.008.09-.007.09-.006.088-.006.09-.004.09-.003.092-.002.09v.183l.002.092.003.09.004.09.005.09.005.09.007.09.01.09.01.088.01.09.01.087.014.087.014.087.015.088.016.087.018.086.018.086.02.086.02.085.02.084.023.085.022.084.024.082.025.083.028.083.027.082.028.08.03.08.03.083.03.08.032.078.033.08.034.08.035.08.035.076.037.077.037.078.038.076.04.076.04.075.04.075.043.074.043.074.045.072.044.073.045.072.046.07.05.072.046.068.05.07.05.07.05.068.05.068.053.067.052.067.053.066.054.065.055.064.056.064.057.063.058.062.058.06.06.062.06.06.06.06.06.06.062.057.062.06.063.055.064.057.064.054.065.055.066.055.065.052.068.052.068.05.068.05.07.05.07.05.07.048.07.047.07.046.073.047.074.044.073.045.073.043.074.042.075.04.074.04.076.04.076.04.077.037.077.037.078.035.078.034.08.034.078.033.08.033.08.03.08.03.08.03.083.028.082.03.08.025.084.025.083.024.084.023.085.023.085.02.084.02.086.02.085.018.086.017.088.016.087.016.087.014.088.013.088.012.088.01.09.01.088.01.09.006.09.007.09.006.09.004.09.002h.092l.092.002h.09l.093-.003.09-.003.092-.004.09-.006.09-.006.09-.006.088-.01.09-.008.088-.01.087-.013.088-.013.087-.014.087-.015.087-.015.086-.017.085-.018.086-.02.086-.02.084-.02.084-.023.084-.023.083-.024.084-.025.083-.026.08-.03.083-.027.08-.03.08-.03.082-.03.08-.032.078-.032.08-.034.078-.035.077-.036.077-.037.077-.038.075-.04.076-.038.076-.04.075-.042.075-.042.074-.043.072-.044.072-.044.072-.045.07-.045.072-.047.07-.048.07-.05.068-.05.068-.05.07-.05.065-.052.066-.054.066-.053.065-.054.065-.055.063-.054.063-.057.063-.06.062-.057.06-.06.062-.06.06-.06.058-.06.06-.062.055-.06.057-.064.057-.064.055-.064.055-.065.054-.066.052-.066.052-.066.052-.068.05-.068.05-.07.05-.07.047-.07.047-.07.046-.07.046-.073.044-.072.044-.073.043-.074.042-.074.04-.075.04-.075.04-.076.038-.076.038-.077.036-.077.036-.078.035-.078.034-.078.033-.08.032-.08.03-.08.03-.08.03-.08.03-.083.026-.083.026-.08.025-.085.023-.084.023-.082.023-.084.02-.086.02-.084.02-.085.017-.086.017-.085.016-.087.015-.087.014-.086.012-.087.012-.09.01-.087.01-.09.01-.088.006-.09.006-.09.006-.09.003-.09.003-.09.002-.092v-.183l-.002-.09-.003-.092-.003-.09-.006-.09-.006-.09-.007-.09-.01-.09-.008-.088-.01-.088-.013-.09-.013-.087-.015-.087-.015-.087-.016-.088-.017-.085-.018-.087-.02-.085-.02-.084-.02-.084-.024-.085-.023-.08-.024-.085-.026-.083-.026-.08-.027-.084-.028-.082-.03-.08-.03-.08-.03-.08-.032-.08-.033-.08-.034-.08-.035-.077-.036-.08-.036-.076-.038-.077-.038-.076-.04-.075-.04-.075-.04-.075-.043-.074-.043-.072-.044-.074-.044-.072-.046-.072-.046-.07-.047-.072-.05-.07-.047-.07-.05-.068-.05-.07-.052-.066-.052-.067-.052-.066-.054-.066-.055-.065-.054-.065-.056-.064-.057-.062-.056-.062-.058-.062-.06-.06-.058-.06-.06-.06-.062-.06-.062-.058-.062-.057-.063-.06-.064-.054-.063-.055-.065-.054-.066-.053-.067-.053-.067-.052-.068-.052-.07-.05-.067-.05-.07-.048-.07-.048-.07-.048-.072-.046-.07-.045-.074-.044-.074-.044-.073-.043-.074-.043-.074-.04-.075-.04-.075-.04-.076-.04-.078-.037-.077-.036-.077-.036-.08-.035-.078-.034-.078-.034-.08-.032-.08-.03-.08-.03-.082-.03-.082-.028-.082-.028-.082-.026-.083-.025-.082-.024-.084-.023-.084-.023-.084-.02-.085-.02-.085-.02-.085-.018-.086-.018-.087-.016-.087-.015-.087-.013-.087-.013-.09-.012-.087-.01-.09-.01-.09-.01-.088-.006-.09-.006-.09-.005-.09-.004-.092-.002-.09-.002h-.184z"/>
      <path class="svg-player__gear-2" d="M610.627 187.08l.09.002.09.003.09.004.088.004.09.006.09.007.09.01.088.008.09.01.088.013.09.012.09.014.087.015.09.016.087.017.222 1.897.074.024.073.024.073.026.073.027.072.03.07.028.073.03.07.032.07.032.072.032.07.034.068.035.07.036.067.036.068.038.067.04.066.038.066.04.065.043.065.042.064.044.064.045.063.045.063.046.062.047.06.048.062.05.06.05.06.05.058.052.058.052.058.053 1.726-.753.06.07.057.07.057.07.057.07.055.073.055.072.053.073.053.074.052.074.05.076.05.076.05.076.048.077.047.078.046.078.045.08.046.08.043.078.04.08.043.08.04.083.04.083.038.082.04.083.035.083.036.085.036.084.033.084.032.085.03.085.032.086.03.088-1.505 1.143.015.078.016.077.015.078.014.077.01.078.012.078.01.078.01.078.008.078.007.078.006.078.004.08.004.077.004.08v.077l.002.08v.077l-.002.078-.003.08-.003.077-.004.08-.006.077-.007.077-.008.078-.01.078-.01.078-.01.08-.013.077-.015.077-.014.078-.015.077-.016.076 1.503 1.144-.03.086-.03.086-.03.086-.034.085-.034.085-.035.084-.035.084-.036.083-.04.082-.037.083-.04.08-.04.083-.042.08-.04.08-.044.08-.045.08-.044.078-.046.08-.047.076-.048.077-.05.075-.05.076-.05.076-.052.075-.053.075-.053.073-.055.072-.055.072-.057.07-.057.072-.058.07-.06.07-1.724-.754-.057.053-.058.052-.058.052-.06.05-.06.05-.06.05-.062.047-.062.047-.062.047-.062.045-.064.045-.064.043-.065.043-.066.04-.067.042-.066.04-.067.038-.068.038-.068.038-.07.036-.068.035-.07.033-.07.033-.07.032-.07.03-.073.03-.07.03-.074.028-.074.027-.073.026-.073.024-.074.024-.222 1.896-.088.017-.09.018-.087.015-.09.014-.09.013-.088.01-.09.012-.088.01-.09.008-.09.007-.09.006-.088.005-.09.004-.09.003-.09.002h-.178l-.09-.002-.09-.003-.09-.004-.088-.005-.09-.006-.09-.007-.088-.01-.09-.008-.09-.01-.088-.012-.09-.013-.088-.014-.088-.015-.09-.017-.087-.016-.22-1.896-.075-.024-.073-.025-.073-.027-.074-.027-.072-.028-.072-.03-.072-.03-.07-.03-.07-.032-.07-.033-.07-.034-.07-.036-.07-.036-.067-.037-.068-.037-.067-.04-.066-.038-.066-.04-.066-.042-.064-.043-.065-.043-.062-.045-.064-.045-.062-.046-.062-.046-.06-.048-.062-.05-.06-.05-.06-.05-.058-.05-.058-.053-.057-.053-1.726.753-.06-.07-.058-.07-.057-.07-.057-.07-.055-.073-.054-.072-.055-.073-.053-.074-.052-.074-.05-.075-.05-.075-.05-.076-.048-.078-.047-.077-.046-.08-.046-.077-.045-.08-.044-.08-.042-.08-.042-.08-.04-.082-.04-.08-.038-.084-.038-.083-.036-.084-.036-.084-.034-.084-.034-.085-.032-.085-.032-.086-.03-.086-.03-.086 1.504-1.144-.016-.077-.016-.078-.014-.078-.014-.077-.012-.078-.01-.08-.01-.077-.01-.078-.01-.078-.006-.078-.005-.08-.005-.078-.004-.078-.003-.08v-.313l.004-.08.004-.077.005-.08.005-.077.007-.078.008-.078.01-.078.01-.078.01-.078.013-.078.014-.077.014-.078.016-.077.016-.077-1.504-1.142.03-.087.03-.085.032-.086.032-.086.034-.085.034-.085.036-.084.036-.082.038-.083.038-.082.04-.082.04-.08.042-.08.042-.082.043-.08.044-.08.045-.077.045-.077.047-.078.05-.077.048-.076.05-.076.05-.075.052-.073.053-.074.054-.074.053-.073.055-.072.057-.07.057-.072.058-.07.06-.07 1.725.754.057-.053.058-.052.06-.052.058-.05.06-.05.06-.05.062-.047.062-.047.062-.046.064-.045.063-.044.066-.043.064-.042.066-.042.066-.04.066-.04.067-.04.068-.037.068-.037.07-.037.07-.035.07-.034.07-.032.07-.032.07-.03.072-.032.072-.03.072-.027.073-.026.072-.026.073-.024.074-.024.22-1.897.09-.017.088-.017.088-.016.09-.014.088-.012.09-.012.088-.01.09-.01.09-.01.088-.006.09-.006.09-.005.09-.005.088-.003h.09l.09-.002h.09zm-.093 3.178l-.064.087-.07.084-.073.08-.077.076-.082.07-.085.07-.09.06-.092.06-.094.05-.098.048-.1.042-.102.036-.06.02-.05.016-.045.016-.044.017-.047.02-.047.018-.046.02-.044.02-.045.02-.045.02-.044.022-.045.022-.044.023-.043.024-.043.023-.043.024-.04.026-.044.026-.042.026-.04.026-.042.028-.04.028-.04.03-.042.03-.04.03-.038.03-.04.03-.038.034-.037.03-.038.034-.04.034-.046.044-.08.07-.082.065-.086.06-.09.056-.09.05-.095.048-.096.042-.1.036-.1.03-.102.027-.103.02-.105.014-.098.01.033.064.043.1.037.1.032.103.026.106.02.106.016.107.01.107.002.107-.002.108-.01.108-.013.107-.02.106-.012.063-.01.05-.01.05-.008.05-.008.05-.008.053-.007.05-.005.05-.006.05-.004.052-.004.05-.003.052-.003.05v.052l-.002.05V194.62l.002.052.003.05.003.052.004.052.004.05.006.052.005.05.007.05.008.052.008.05.008.05.01.052.01.05.013.062.02.106.015.107.01.108v.108l-.002.108-.01.108-.014.107-.022.106-.026.106-.032.103-.037.1-.043.1-.033.065.098.008.104.015.102.02.103.026.1.03.1.038.096.04.095.048.092.05.09.057.085.06.083.067.08.07.046.043.04.034.037.034.037.032.04.032.038.03.04.032.04.03.04.03.04.03.04.027.04.028.042.027.042.026.043.027.04.025.044.024.043.025.044.022.044.023.045.022.043.022.045.02.045.02.044.02.046.02.046.018.045.018.046.017.048.016.047.015.06.02.103.036.1.043.098.047.095.053.094.057.09.063.084.067.082.072.077.076.074.08.07.084.064.087.004.005.003-.006.066-.088.068-.084.074-.08.077-.076.082-.072.086-.067.088-.063.094-.057.095-.053.097-.047.1-.042.103-.035.06-.02.047-.016.047-.017.046-.017.046-.018.046-.02.046-.018.045-.02.044-.02.045-.02.045-.023.044-.022.045-.023.043-.023.043-.026.044-.024.042-.025.043-.027.04-.026.042-.027.04-.028.042-.028.04-.03.04-.03.04-.03.04-.03.038-.032.04-.032.037-.032.036-.033.038-.033.047-.044.08-.07.083-.065.086-.06.088-.057.092-.05.094-.047.097-.04.1-.038.1-.03.103-.027.103-.02.104-.015.098-.008-.033-.066-.043-.1-.037-.1-.032-.104-.026-.105-.02-.105-.016-.107-.008-.107-.003-.107v-.108l.01-.108.014-.107.02-.106.014-.063.01-.048.01-.05.008-.05.008-.052.007-.052.008-.05.006-.05.005-.05.003-.052.004-.052.003-.05.003-.052v-.05l.002-.052V194.417l-.002-.052-.003-.05-.003-.052-.004-.05-.004-.052-.006-.05-.006-.05-.007-.05-.006-.053-.008-.05-.01-.05-.01-.052-.008-.05-.014-.062-.02-.106-.014-.107-.01-.108v-.108l.002-.107.01-.108.014-.108.02-.106.027-.105.032-.102.037-.1.043-.1.033-.065-.098-.01-.104-.014-.103-.02-.102-.027-.1-.03-.1-.037-.096-.042-.094-.047-.092-.05-.09-.057-.085-.06-.083-.066-.08-.07-.046-.044-.038-.034-.037-.033-.04-.03-.038-.034-.04-.032-.038-.03-.04-.03-.04-.03-.04-.03-.042-.028-.04-.028-.04-.026-.043-.027-.044-.027-.042-.026-.043-.024-.042-.024-.043-.025-.045-.023-.043-.022-.044-.022-.046-.02-.044-.02-.045-.02-.046-.02-.046-.02-.046-.017-.046-.016-.046-.016-.048-.016-.06-.02-.103-.036-.1-.042-.098-.047-.096-.052-.093-.058-.087-.062-.086-.068-.082-.07-.077-.077-.074-.08-.068-.085-.065-.087-.002-.006-.004.006zm.093.774l.09.003.088.006.088.01.087.01.088.012.086.014.085.017.086.02.084.02.083.023.084.025.08.028.082.03.08.03.078.033.077.035.076.036.078.04.075.04.072.042.073.044.07.045.07.047.068.048.067.05.067.05.064.054.064.054.062.056.058.055.06.06.058.06.056.06.055.064.052.062.05.066.05.066.05.067.045.07.047.07.043.072.043.072.04.074.038.072.037.076.036.078.033.08.03.075.03.08.028.08.027.08.024.083.023.083.02.086.018.083.017.083.014.085.013.088.01.09.007.084.006.088.003.09v.173l-.004.09-.006.087-.007.085-.01.088-.012.088-.013.086-.016.082-.016.084-.02.085-.023.084-.023.083-.026.082-.027.078-.03.08-.03.077-.034.078-.037.078-.037.077-.038.072-.04.074-.042.07-.044.072-.047.072-.046.07-.05.065-.05.067-.05.065-.053.063-.055.063-.057.063-.057.06-.06.06-.058.054-.063.057-.063.054-.064.052-.067.053-.067.05-.068.048-.07.047-.07.045-.073.043-.073.042-.074.04-.076.038-.077.037-.077.034-.08.033-.08.03-.08.03-.08.026-.085.025-.084.025-.084.02-.086.02-.087.016-.085.015-.087.013-.087.01-.088.008-.09.006-.09.003h-.177l-.09-.003-.088-.006-.088-.008-.088-.01-.087-.013-.085-.014-.087-.016-.086-.02-.084-.02-.084-.023-.084-.024-.08-.027-.082-.03-.08-.03-.078-.033-.078-.035-.078-.037-.075-.038-.073-.04-.074-.042-.072-.043-.072-.045-.07-.047-.067-.047-.068-.05-.067-.053-.064-.052-.062-.054-.062-.057-.06-.055-.06-.06-.056-.06-.056-.06-.056-.064-.052-.063-.052-.065-.05-.067-.048-.066-.046-.07-.046-.07-.045-.072-.042-.07-.04-.076-.04-.075-.036-.074-.036-.077-.033-.078-.03-.077-.03-.08-.028-.08-.027-.08-.024-.084-.022-.083-.02-.082-.018-.086-.016-.085-.014-.083-.012-.088-.01-.088-.007-.085-.006-.088-.004-.09v-.174l.003-.09.005-.088.007-.085.01-.09.012-.087.014-.083.016-.085.018-.086.02-.084.022-.083.024-.082.026-.08.028-.08.03-.08.03-.077.034-.08.036-.077.036-.074.04-.074.04-.074.042-.072.044-.073.046-.07.046-.07.048-.066.05-.066.052-.066.053-.063.054-.064.056-.06.057-.062.06-.06.06-.054.06-.056.064-.055.066-.054.066-.052.067-.05.066-.047.07-.046.072-.045.072-.043.073-.042.074-.04.076-.038.077-.037.078-.035.077-.032.08-.03.083-.03.08-.027.084-.024.083-.023.084-.02.086-.02.085-.017.087-.014.088-.013.087-.01.088-.01.09-.005.088-.003h.18zm-.127 2h-.038l-.037.003-.037.004-.037.003-.035.005-.036.006-.037.007-.036.01-.035.008-.035.01-.034.01-.034.01-.035.013-.034.014-.032.014-.032.014-.032.016-.032.016-.03.017-.032.018-.03.018-.03.02-.03.02-.03.02-.027.02-.028.022-.028.023-.026.024-.026.024-.025.024-.027.025-.024.025-.025.027-.023.025-.023.027-.023.028-.02.03-.022.028-.02.03-.02.03-.018.03-.018.03-.02.032-.015.032-.016.032-.016.033-.014.033-.014.033-.012.034-.012.035-.01.034-.012.036-.01.035-.008.036-.007.036-.007.035-.006.037-.005.037-.005.037-.003.037-.003.038-.002.038v.077l.002.038.002.038.002.038.005.038.005.037.006.037.007.036.007.036.01.036.008.036.01.035.012.036.012.034.012.034.014.033.014.034.015.033.015.033.016.03.02.033.017.03.018.03.02.03.02.03.02.028.022.03.022.027.022.027.023.027.024.025.023.025.026.025.024.025.027.023.027.023.028.023.028.02.028.022.03.02.03.02.03.02.03.017.03.017.032.016.032.016.032.015.032.014.033.013.035.013.034.012.033.01.034.012.035.01.035.008.036.008.036.007.035.006.036.004.038.005.037.002.037.002.038.002h.075l.038-.002.037-.002.037-.003.037-.006.036-.005.036-.007.036-.007.036-.008.035-.01.035-.008.034-.01.034-.012.034-.012.034-.013.033-.014.032-.015.03-.016.033-.017.032-.016.03-.018.03-.02.03-.018.03-.02.03-.02.028-.02.027-.023.028-.024.027-.023.026-.023.027-.025.025-.025.024-.025.024-.026.023-.028.023-.027.022-.028.022-.03.02-.027.02-.03.02-.03.018-.03.018-.03.018-.033.016-.03.016-.034.015-.032.015-.033.014-.033.01-.034.013-.034.01-.035.012-.034.01-.036.008-.036.008-.036.007-.036.006-.037.006-.037.003-.037.003-.037.002-.038.002-.038v-.078l-.002-.038-.002-.038-.003-.037-.004-.038-.007-.038-.006-.037-.006-.036-.007-.037-.01-.036-.008-.035-.01-.036-.012-.034-.012-.035-.01-.034-.015-.033-.014-.033-.014-.033-.016-.032-.016-.032-.018-.032-.018-.03-.018-.03-.02-.03-.02-.03-.02-.03-.022-.028-.022-.028-.023-.027-.023-.026-.024-.028-.024-.025-.025-.025-.026-.024-.025-.024-.027-.023-.028-.022-.027-.02-.03-.022-.028-.02-.03-.02-.03-.02-.03-.018-.03-.017-.032-.016-.032-.016-.03-.016-.033-.014-.033-.014-.034-.013-.034-.01-.034-.012-.034-.01-.035-.01-.035-.01-.036-.007-.036-.006-.036-.006-.036-.005-.037-.004-.037-.005-.037-.002-.038-.002h-.075z"/>
      <path d="M625.714 194.52v40.93" fill="none" stroke="#000" stroke-width="2" stroke-linejoin="round"/>
      <circle cx="529.835" cy="194.519" r="21.364" fill="#fff"/>
      <path d="M529.973 173.155h.138l.14.003.136.003.137.005.137.005.137.006.137.006.136.008.136.008.136.01.136.01.135.01.136.01.133.014.135.013.135.014.134.014.134.016.135.016.133.018.133.018.134.02.133.02.132.02.13.02.133.023.132.023.13.024.132.025.13.025.13.027.132.026.13.028.128.028.13.03.13.03.127.03.13.033.127.033.128.033.127.035.127.035.127.035.128.037.126.037.126.037.125.04.125.038.125.04.125.04.124.043.124.042.124.043.123.044.123.045.122.045.122.046.122.047.122.047.12.05.12.047.122.05.12.05.12.052.12.05.117.054.12.053.117.054.118.054.117.057.117.056.116.056.117.056.115.058.116.06.115.058.114.06.114.06.115.063.113.062.113.062.114.063.112.064.11.064.113.067.11.066.11.066.11.066.11.068.108.07.11.068.107.07.108.07.107.07.107.073.106.073.106.072.104.074.105.074.104.075.104.075.103.076.104.077.103.078.102.078.1.08.102.078.1.08.1.08.1.08.1.082.098.08.098.084.098.083.097.084.097.084.096.086.096.085.095.087.094.087.095.087.094.088.092.09.093.087.092.09.09.09.092.09.09.09.09.092.088.092.09.092.087.093.088.093.087.094.087.095.085.095.086.096.085.096.084.097.084.098.084.097.082.1.082.097.082.1.08.1.08.1.08.1.08.1.078.103.077.102.078.102.076.103.075.103.076.104.076.105.074.105.073.105.073.106.073.107.07.107.07.107.072.11.07.107.07.11.067.108.067.11.067.11.067.11.067.11.065.11.065.113.064.112.064.112.063.113.062.114.06.112.06.115.06.114.06.116.06.115.057.117.058.116.056.117.057.117.055.117.055.118.054.118.054.118.052.12.052.118.05.12.052.12.05.12.048.12.048.122.048.122.047.12.047.124.045.122.045.123.043.122.044.124.042.124.042.124.04.124.04.125.04.125.04.126.037.126.037.126.036.127.036.127.035.127.033.127.033.128.033.128.03.128.032.13.03.128.03.13.028.13.028.13.027.13.026.13.027.13.024.132.025.13.023.132.023.132.022.132.02.133.02.133.02.132.018.134.018.133.016.133.016.134.015.134.014.136.012.134.013.135.01.135.012.136.01.135.01.137.007.137.007.136.008.136.006.137.004.137.004.138.003.137.003.138v.553l-.003.137-.003.138-.004.137-.004.137-.006.137-.007.137-.006.137-.008.136-.01.136-.01.135-.01.137-.01.135-.014.135-.013.135-.015.134-.015.134-.016.134-.016.134-.018.133-.018.135-.02.133-.02.132-.02.133-.02.132-.024.132-.023.13-.024.133-.023.13-.026.13-.025.132-.027.13-.028.13-.03.13-.028.13-.03.128-.03.13-.033.127-.034.128-.033.128-.034.127-.036.128-.036.126-.036.127-.037.127-.038.126-.04.126-.038.124-.04.125-.042.123-.042.125-.042.124-.044.123-.043.123-.045.123-.045.124-.046.122-.046.122-.048.12-.048.122-.05.12-.048.12-.05.12-.052.12-.052.12-.052.12-.053.117-.053.118-.055.118-.055.117-.056.117-.055.117-.058.116-.058.116-.06.115-.06.116-.06.115-.06.115-.06.114-.063.112-.063.113-.063.112-.063.112-.065.11-.065.112-.066.11-.066.11-.067.11-.068.11-.07.11-.068.108-.07.108-.07.108-.072.107-.07.107-.074.106-.073.106-.073.106-.074.105-.075.104-.075.104-.076.105-.077.103-.078.102-.077.102-.08.102-.078.1-.08.102-.08.1-.08.1-.082.1-.082.098-.082.098-.083.097-.083.097-.084.096-.085.096-.086.095-.085.095-.087.095-.087.094-.088.092-.088.094-.09.092-.088.092-.09.09-.09.092-.092.09-.09.09-.093.09-.093.09-.093.087-.095.086-.094.087-.093.087-.095.086-.096.085-.096.086-.097.084-.097.084-.098.083-.098.083-.1.082-.098.08-.1.082-.1.08-.1.08-.1.08-.103.077-.103.08-.103.076-.103.077-.102.076-.104.074-.105.075-.106.073-.105.074-.107.073-.106.072-.107.072-.107.07-.108.07-.108.07-.11.07-.108.07-.11.067-.11.068-.11.067-.11.066-.113.066-.11.065-.113.065-.113.063-.112.063-.113.063-.114.06-.113.062-.114.06-.115.06-.116.058-.115.058-.117.058-.116.057-.117.056-.117.056-.118.054-.118.054-.12.053-.117.053-.12.052-.12.05-.12.05-.12.05-.12.05-.12.048-.123.047-.122.047-.122.046-.122.045-.123.045-.123.044-.124.043-.124.042-.124.04-.125.042-.125.04-.125.04-.125.038-.126.038-.126.037-.127.037-.126.035-.127.035-.127.034-.128.034-.128.032-.13.032-.127.03-.13.03-.13.03-.128.03-.13.027-.132.028-.13.027-.13.025-.132.025-.13.024-.133.022-.132.022-.13.022-.133.02-.133.02-.133.02-.132.018-.133.017-.134.018-.133.015-.134.015-.135.014-.135.014-.134.012-.137.012-.135.01-.136.01-.136.01-.136.008-.136.007-.137.006-.137.007-.137.005-.137.004-.137.003h-.14l-.137.002H529.56l-.138-.003-.138-.004-.137-.004-.137-.005-.137-.006-.137-.005-.136-.007-.136-.01-.136-.008-.136-.01-.135-.01-.135-.012-.135-.012-.135-.014-.134-.014-.135-.015-.134-.015-.134-.017-.134-.016-.133-.02-.134-.018-.133-.02-.132-.02-.13-.022-.133-.022-.132-.023-.13-.025-.132-.025-.13-.025-.13-.027-.13-.027-.13-.027-.13-.028-.13-.03-.13-.03-.128-.03-.128-.033-.128-.032-.13-.034-.127-.034-.127-.035-.127-.035-.127-.037-.127-.037-.125-.038-.125-.038-.125-.04-.125-.04-.125-.04-.124-.043-.124-.043-.123-.043-.125-.044-.122-.045-.123-.045-.122-.046-.122-.047-.12-.047-.122-.048-.12-.05-.12-.05-.12-.05-.12-.05-.12-.052-.12-.053-.118-.053-.118-.054-.117-.054-.117-.055-.117-.055-.116-.057-.116-.057-.116-.057-.115-.06-.115-.058-.115-.06-.114-.06-.115-.062-.113-.062-.113-.062-.113-.063-.113-.064-.11-.064-.112-.065-.11-.065-.11-.067-.11-.067-.11-.067-.11-.07-.108-.068-.11-.07-.106-.07-.107-.07-.106-.073-.107-.072-.105-.073-.106-.074-.105-.074-.103-.076-.104-.075-.104-.077-.104-.077-.103-.077-.102-.08-.1-.077-.1-.08-.102-.08-.1-.08-.1-.08-.1-.08-.098-.083-.098-.083-.098-.083-.097-.084-.097-.084-.096-.085-.095-.084-.096-.086-.095-.087-.095-.087-.094-.087-.092-.09-.092-.088-.092-.09-.092-.09-.09-.09-.09-.09-.09-.092-.09-.092-.09-.092-.087-.094-.088-.093-.087-.095-.086-.095-.086-.095-.086-.096-.084-.097-.085-.096-.083-.098-.083-.098-.083-.098-.082-.1-.08-.098-.082-.1-.08-.1-.08-.1-.08-.102-.077-.102-.078-.102-.077-.102-.077-.103-.075-.104-.075-.103-.075-.104-.074-.105-.073-.106-.073-.106-.072-.106-.072-.107-.07-.107-.07-.108-.07-.108-.07-.108-.07-.11-.067-.11-.067-.11-.067-.11-.067-.11-.065-.11-.065-.113-.064-.113-.064-.112-.063-.113-.062-.113-.06-.115-.06-.114-.06-.114-.06-.115-.06-.114-.057-.116-.057-.116-.057-.117-.057-.117-.055-.117-.055-.118-.054-.118-.054-.118-.052-.12-.052-.12-.05-.12-.05-.12-.05-.12-.05-.12-.048-.12-.048-.122-.046-.122-.046-.122-.046-.123-.044-.122-.044-.123-.043-.123-.043-.124-.04-.125-.042-.124-.04-.126-.04-.125-.04-.127-.036-.126-.038-.126-.036-.126-.036-.126-.034-.128-.035-.127-.033-.128-.032-.128-.032-.128-.03-.13-.032-.13-.03-.128-.028-.13-.028-.13-.027-.13-.026-.13-.026-.13-.025-.132-.025-.132-.023-.13-.022-.133-.022-.132-.02-.133-.02-.132-.02-.133-.018-.134-.017-.132-.017-.134-.016-.134-.015-.134-.014-.134-.012-.135-.012-.135-.012-.135-.01-.136-.01-.134-.01-.136-.008-.136-.007-.137-.008-.136-.005-.136-.005-.137-.004-.137-.003-.138-.002-.137-.002-.138v-.278l.003-.137.002-.138.003-.137.004-.138.005-.137.005-.137.007-.136.006-.136.008-.137.01-.136.01-.134.01-.136.012-.135.012-.135.013-.134.015-.135.015-.133.016-.134.017-.134.017-.134.018-.134.02-.132.02-.133.02-.133.022-.132.022-.132.023-.13.024-.132.024-.132.025-.13.025-.13.027-.13.028-.13.03-.13.028-.13.03-.13.032-.128.032-.128.032-.128.033-.128.035-.127.034-.127.036-.127.036-.127.038-.126.037-.126.04-.126.04-.125.04-.125.04-.124.04-.124.044-.124.043-.124.044-.123.044-.124.046-.122.046-.123.046-.12.048-.122.048-.12.05-.122.05-.12.05-.12.05-.12.052-.12.052-.118.053-.118.053-.118.055-.118.055-.117.056-.117.056-.117.057-.116.058-.116.06-.114.06-.115.06-.113.06-.115.06-.113.063-.115.063-.113.063-.112.063-.112.065-.112.065-.11.066-.112.066-.11.067-.11.068-.11.07-.108.07-.11.07-.107.07-.11.07-.106.072-.107.072-.106.073-.105.074-.105.075-.105.075-.105.075-.104.076-.103.078-.104.077-.103.078-.102.078-.102.08-.1.08-.102.08-.1.08-.1.082-.098.082-.098.083-.1.083-.096.083-.097.085-.096.084-.096.086-.096.086-.095.086-.095.087-.094.088-.093.088-.093.09-.093.088-.093.09-.09.09-.092.092-.09.092-.09.092-.09.092-.088.093-.09.095-.086.094-.086.094-.087.095-.086.094-.084.096-.085.097-.083.097-.084.098-.083.098-.083.1-.08.098-.083.1-.08.1-.08.1-.08.102-.08.1-.078.103-.078.103-.077.103-.076.103-.076.104-.075.104-.075.106-.074.106-.074.105-.072.107-.073.107-.072.108-.07.107-.07.11-.07.107-.07.11-.07.11-.067.11-.067.11-.067.11-.066.11-.066.112-.063.113-.064.112-.064.112-.063.113-.062.114-.062.113-.06.115-.06.115-.06.115-.06.116-.057.116-.057.116-.057.117-.056.118-.056.118-.053.118-.054.12-.053.118-.053.12-.05.12-.053.12-.05.12-.05.12-.048.12-.05.122-.046.122-.047.122-.046.123-.045.122-.045.124-.044.122-.043.124-.042.124-.042.125-.04.125-.04.125-.04.126-.04.126-.037.127-.038.126-.037.126-.035.127-.035.128-.034.13-.032.127-.033.128-.032.13-.03.128-.03.13-.03.13-.03.13-.027.13-.027.13-.028.13-.025.13-.025.132-.024.132-.023.132-.022.13-.022.133-.02.133-.02.133-.018.132-.018.134-.018.133-.016.133-.016.135-.015.134-.015.135-.013.135-.013.135-.012.135-.01.136-.01.136-.01.136-.008.136-.008.137-.006.137-.006.137-.005.137-.004.138-.002.137-.002h.137l.138-.002h.138zm-.263 2h-.126l-.124.003-.125.003-.125.004-.124.005-.124.004-.124.006-.124.006-.123.008-.123.008-.123.01-.122.01-.123.01-.123.01-.123.013-.122.012-.12.014-.122.015-.122.015-.12.016-.122.017-.12.017-.12.018-.12.02-.12.018-.12.02-.12.02-.118.023-.118.02-.12.024-.117.024-.118.025-.118.025-.117.026-.117.027-.116.028-.117.028-.117.03-.116.028-.115.03-.116.03-.115.033-.114.032-.114.032-.114.034-.115.034-.114.035-.114.036-.113.037-.113.037-.112.038-.112.038-.112.04-.112.04-.11.04-.113.04-.11.042-.11.043-.11.043-.11.043-.11.046-.11.045-.108.046-.108.047-.108.046-.108.047-.107.048-.106.05-.107.048-.106.05-.105.05-.106.053-.106.05-.104.054-.105.053-.104.054-.103.054-.104.056-.103.056-.102.056-.103.057-.102.057-.1.058-.102.06-.1.058-.1.06-.1.06-.1.06-.1.063-.098.063-.1.063-.097.063-.097.063-.098.064-.096.065-.097.066-.096.066-.094.067-.095.068-.094.068-.095.068-.092.07-.094.07-.093.07-.09.07-.094.07-.092.072-.09.072-.092.073-.09.074-.09.074-.09.074-.09.075-.087.076-.088.075-.088.077-.088.077-.087.077-.086.077-.087.08-.085.078-.085.08-.085.08-.084.08-.083.08-.082.082-.082.082-.082.08-.082.085-.08.083-.08.084-.08.084-.08.085-.08.086-.078.086-.078.087-.078.085-.077.087-.075.088-.076.088-.077.09-.074.088-.075.09-.074.09-.072.09-.073.09-.073.092-.07.09-.072.094-.07.092-.07.093-.07.094-.07.095-.067.094-.07.094-.066.095-.066.095-.066.096-.065.097-.066.097-.064.097-.064.1-.064.097-.063.098-.063.1-.06.098-.062.1-.06.1-.06.1-.06.1-.058.102-.058.102-.058.1-.057.104-.057.104-.055.103-.055.103-.055.104-.054.104-.054.105-.052.104-.052.106-.05.105-.052.107-.05.106-.05.107-.048.107-.048.107-.048.11-.047.107-.047.11-.046.108-.045.108-.044.11-.044.11-.043.11-.04.11-.043.11-.04.11-.04.113-.04.11-.04.113-.038.11-.04.113-.036.114-.037.113-.035.113-.035.114-.035.114-.033.115-.034.115-.032.114-.032.116-.03.115-.03.116-.03.117-.03.116-.027.117-.028.116-.027.118-.026.117-.025.12-.025.117-.024.118-.022.118-.023.12-.02.118-.022.12-.02.12-.02.12-.02.12-.017.12-.017.12-.017.12-.016.12-.015.123-.015.12-.013.123-.013.122-.01.122-.012.122-.01.123-.01.123-.01.123-.008.124-.007.124-.007.123-.006.125-.005.124-.004.124-.003.125-.002.123-.002.125-.002.125v.25l.003.125.002.124.002.125.004.124.005.124.005.124.006.124.007.124.007.123.01.123.008.124.01.122.01.123.01.122.013.122.014.12.013.123.015.122.015.12.016.12.016.122.016.12.018.12.02.12.02.12.02.12.02.12.02.118.024.12.023.117.025.118.024.118.024.118.026.117.027.118.028.118.028.116.028.116.03.116.03.116.032.115.032.116.032.115.033.114.032.115.035.113.035.114.035.114.037.112.037.114.04.112.037.112.04.112.04.112.04.11.04.112.042.11.04.11.044.11.044.11.044.11.045.11.046.107.046.11.046.108.048.108.048.107.048.107.05.106.05.107.05.106.052.104.052.106.053.105.052.104.053.103.055.104.055.103.055.103.056.103.058.103.057.1.057.102.058.1.06.102.06.1.06.1.06.1.062.1.063.098.062.098.063.098.065.1.064.096.065.096.064.097.067.096.067.095.067.095.07.095.067.094.07.094.07.094.07.093.07.092.07.092.073.092.072.09.072.09.074.092.075.09.074.09.074.088.075.09.075.087.076.088.078.087.078.087.078.085.078.086.08.086.08.085.08.085.08.084.08.083.082.083.082.082.082.082.083.082.084.08.084.08.085.08.085.08.085.08.086.078.085.078.087.077.087.077.087.077.088.075.088.075.09.075.09.074.09.073.09.073.09.073.09.07.093.073.092.07.093.072.094.07.093.07.094.068.096.068.095.07.096.066.095.067.097.066.097.065.097.065.098.064.097.064.098.064.1.062.098.062.1.062.1.06.1.06.1.06.1.06.102.06.1.057.103.057.103.057.102.055.103.056.104.056.104.054.105.054.105.053.104.053.105.052.105.05.106.052.107.05.107.05.107.048.108.048.108.048.108.047.108.046.11.047.108.045.11.044.11.043.11.042.11.043.11.04.11.042.112.04.112.04.112.04.112.038.113.038.113.037.113.036.114.036.113.035.114.034.115.035.114.033.115.032.116.032.116.03.115.03.116.03.117.03.117.027.116.027.117.026.117.026.118.024.118.025.118.023.12.023.118.022.12.022.12.02.118.02.12.02.12.02.12.017.12.018.12.016.123.017.12.015.12.014.123.014.12.013.124.012.122.01.12.01.125.01.122.01.123.008.124.008.124.007.124.006.124.005.125.005.125.003.124.003h.125l.125.002h.376l.126-.003.126-.004.124-.003.124-.005.124-.005.124-.006.124-.006.124-.007.123-.008.123-.01.123-.01.12-.01.124-.01.122-.012.122-.013.122-.014.12-.014.122-.015.12-.016.122-.015.12-.018.12-.018.12-.02.12-.02.12-.02.12-.02.118-.022.12-.022.117-.023.117-.024.118-.026.118-.025.117-.027.117-.026.117-.028.117-.03.117-.028.116-.03.116-.03.114-.03.115-.032.114-.032.115-.033.113-.034.114-.033.113-.035.114-.036.113-.036.113-.037.113-.038.112-.038.11-.04.113-.04.112-.04.11-.04.11-.042.11-.043.112-.043.11-.044.108-.044.11-.045.108-.046.108-.045.108-.047.108-.048.107-.048.106-.05.107-.048.106-.05.106-.05.105-.052.106-.052.105-.053.105-.053.105-.054.104-.054.103-.055.103-.055.103-.056.102-.058.102-.057.102-.058.1-.06.1-.058.1-.06.1-.06.1-.062.1-.06.1-.064.097-.062.098-.064.098-.064.097-.064.097-.065.096-.066.096-.067.095-.067.095-.067.095-.07.094-.067.093-.07.093-.068.093-.07.092-.07.092-.072.092-.072.09-.07.092-.073.09-.074.09-.074.09-.075.09-.075.087-.075.088-.076.09-.078.086-.077.085-.077.087-.078.085-.078.086-.08.085-.08.084-.08.084-.08.083-.08.082-.082.083-.082.082-.082.08-.083.082-.083.08-.085.08-.084.08-.084.078-.085.078-.085.078-.086.078-.088.077-.088.075-.087.076-.088.077-.09.074-.09.076-.088.073-.09.073-.09.072-.09.073-.093.07-.093.072-.09.07-.094.07-.094.07-.094.07-.094.068-.094.068-.095.067-.095.067-.096.066-.095.065-.097.067-.097.064-.097.065-.098.063-.098.063-.098.063-.1.06-.098.062-.1.06-.1.06-.1.06-.1.058-.102.06-.102.056-.102.056-.102.056-.102.055-.104.056-.103.054-.104.054-.104.054-.106.052-.104.052-.106.052-.106.05-.105.05-.106.05-.107.05-.107.047-.107.047-.108.047-.108.047-.11.046-.107.045-.11.044-.108.044-.11.043-.11.042-.11.04-.11.042-.112.04-.11.04-.113.04-.112.038-.112.037-.113.036-.112.037-.112.036-.114.034-.114.034-.113.033-.114.034-.115.033-.115.03-.115.032-.116.03-.116.03-.116.028-.116.028-.116.027-.117.027-.117.026-.117.025-.117.026-.12.023-.118.023-.118.022-.12.022-.118.02-.12.02-.118.02-.12.02-.12.017-.12.017-.12.018-.122.016-.12.015-.122.013-.12.013-.123.013-.12.01-.123.012-.122.01-.122.01-.124.01-.124.008-.123.007-.124.007-.124.006-.124.005-.124.004-.125.003-.124.003-.126.002-.125v-.503l-.002-.125-.003-.125-.004-.124-.005-.125-.005-.125-.006-.124-.007-.122-.007-.124-.008-.123-.01-.122-.01-.123-.01-.123-.01-.122-.013-.122-.014-.122-.013-.122-.014-.12-.016-.122-.016-.12-.017-.122-.016-.12-.018-.12-.02-.12-.018-.12-.02-.12-.02-.12-.023-.118-.023-.12-.023-.117-.024-.118-.025-.12-.024-.116-.026-.116-.027-.118-.027-.116-.028-.117-.03-.116-.03-.116-.03-.115-.03-.115-.03-.116-.034-.114-.033-.115-.032-.114-.034-.113-.035-.114-.037-.113-.037-.114-.036-.112-.038-.113-.04-.11-.038-.113-.04-.112-.04-.11-.04-.112-.042-.11-.043-.11-.044-.11-.044-.11-.044-.11-.045-.108-.046-.11-.046-.108-.046-.107-.047-.11-.048-.106-.05-.107-.05-.107-.05-.106-.05-.105-.052-.107-.052-.106-.052-.104-.053-.105-.053-.104-.054-.103-.055-.103-.056-.103-.056-.103-.057-.1-.058-.103-.06-.102-.057-.1-.06-.1-.06-.102-.06-.1-.06-.1-.062-.1-.062-.098-.062-.098-.063-.098-.064-.1-.063-.096-.066-.097-.064-.096-.066-.095-.067-.096-.067-.096-.068-.095-.068-.095-.07-.094-.07-.092-.07-.093-.07-.093-.07-.093-.072-.092-.073-.092-.072-.09-.073-.09-.074-.09-.075-.09-.073-.09-.076-.088-.075-.088-.076-.087-.078-.088-.078-.087-.078-.086-.078-.086-.08-.085-.078-.084-.08-.084-.08-.084-.082-.084-.08-.083-.083-.08-.083-.083-.083-.082-.084-.08-.084-.08-.084-.08-.085-.08-.086-.08-.086-.078-.085-.078-.086-.078-.088-.077-.09-.077-.087-.076-.088-.075-.09-.075-.09-.074-.09-.074-.09-.073-.09-.072-.09-.072-.093-.072-.092-.07-.093-.07-.094-.07-.093-.07-.094-.07-.095-.068-.095-.068-.095-.067-.096-.066-.097-.066-.097-.066-.096-.065-.097-.064-.098-.064-.098-.064-.098-.063-.1-.062-.1-.06-.1-.062-.1-.06-.1-.06-.1-.06-.102-.058-.1-.058-.103-.057-.102-.057-.103-.056-.103-.056-.103-.055-.104-.053-.105-.054-.104-.053-.104-.053-.105-.052-.104-.05-.107-.052-.107-.05-.107-.05-.107-.048-.108-.048-.107-.047-.11-.047-.107-.047-.11-.045-.108-.044-.11-.045-.108-.042-.11-.043-.11-.043-.11-.04-.112-.042-.112-.04-.112-.04-.11-.04-.113-.038-.113-.038-.113-.037-.113-.036-.113-.035-.113-.035-.114-.034-.114-.034-.116-.033-.115-.033-.116-.032-.115-.03-.117-.03-.116-.03-.116-.03-.116-.027-.117-.027-.117-.026-.117-.026-.118-.025-.118-.025-.118-.024-.12-.023-.118-.02-.12-.023-.118-.02-.12-.02-.12-.02-.12-.02-.12-.017-.12-.017-.12-.017-.122-.016-.12-.015-.123-.014-.122-.013-.122-.012-.122-.012-.123-.012-.12-.01-.124-.01-.123-.008-.124-.008-.124-.008-.123-.006-.125-.006-.124-.005-.124-.006-.124-.003-.126-.002-.124-.002h-.125l-.125-.002h-.125z"/>
      <circle cx="529.835" cy="194.519" r="9.053" fill="#fff"/>
      <path d="M529.952 185.466l.117.002.115.004.116.005.116.007.115.008.116.01.114.01.114.013.114.013.113.015.113.017.112.018.112.02.11.02.112.02.11.025.11.024.108.026.11.028.107.03.107.03.107.03.106.033.106.033.105.035.105.038.105.037.103.04.103.04.103.04.102.042.1.044.1.046.1.046.1.047.1.047.097.05.097.05.097.052.095.052.095.054.094.055.094.057.093.057.093.058.092.06.09.06.09.062.09.063.088.063.087.065.087.066.086.067.085.068.084.07.084.07.082.07.082.07.08.073.08.074.08.074.078.076.077.076.077.078.075.078.075.08.073.08.073.08.072.08.07.084.07.083.07.086.066.085.067.087.066.086.063.088.064.09.063.088.06.09.062.09.06.093.058.093.057.093.056.093.055.094.054.095.053.095.052.096.05.1.05.097.048.098.047.1.046.1.045.1.043.1.043.103.04.102.04.103.04.104.036.104.036.106.035.106.034.106.033.106.032.107.03.11.028.107.027.11.026.108.025.11.024.11.022.11.02.112.02.112.018.11.016.113.016.113.013.114.012.114.01.114.01.114.008.116.007.115.005.116.003.115.003.117v.233l-.003.116-.003.116-.005.116-.007.116-.008.115-.01.114-.01.114-.013.114-.014.113-.016.114-.016.113-.018.112-.02.11-.02.11-.022.112-.023.11-.024.11-.026.11-.027.108-.03.108-.028.108-.032.107-.032.106-.033.105-.035.106-.036.106-.037.104-.04.104-.04.103-.04.102-.044.1-.043.102-.045.1-.046.1-.047.1-.048.1-.05.097-.05.096-.052.096-.053.096-.054.095-.055.095-.056.093-.057.094-.06.093-.058.09-.06.092-.062.09-.063.088-.064.088-.064.088-.067.087-.067.086-.067.086-.07.084-.07.083-.07.082-.072.082-.073.08-.073.08-.075.08-.075.078-.077.077-.077.075-.078.076-.08.075-.08.074-.08.07-.082.073-.082.07-.084.07-.084.07-.085.067-.086.067-.087.065-.087.065-.09.064-.088.063-.09.062-.09.06-.092.06-.092.058-.092.057-.094.056-.094.056-.095.054-.096.052-.098.052-.097.05-.098.05-.098.048-.1.048-.1.045-.1.046-.102.044-.102.042-.103.04-.103.04-.103.04-.105.038-.105.036-.105.035-.106.034-.107.033-.108.03-.107.03-.108.03-.11.027-.108.026-.11.024-.11.024-.112.022-.11.02-.113.02-.112.017-.112.017-.112.015-.114.013-.114.012-.114.01-.115.01-.114.008-.115.007-.115.005-.116.004h-.118l-.117.002h-.117l-.116-.003-.117-.005-.115-.005-.116-.007-.115-.008-.116-.01-.114-.01-.114-.012-.113-.014-.113-.016-.113-.017-.112-.018-.112-.02-.11-.02-.11-.022-.112-.024-.108-.024-.11-.026-.108-.027-.108-.03-.108-.03-.107-.03-.106-.033-.106-.033-.105-.034-.105-.036-.104-.038-.104-.04-.103-.04-.103-.04-.1-.042-.103-.044-.1-.045-.1-.044-.098-.048-.1-.048-.097-.05-.097-.05-.097-.052-.095-.052-.095-.054-.094-.056-.094-.056-.093-.057-.093-.058-.09-.06-.092-.06-.09-.062-.09-.062-.088-.063-.087-.065-.087-.065-.086-.067-.085-.068-.084-.07-.084-.068-.082-.07-.082-.073-.08-.07-.08-.075-.08-.074-.078-.075-.077-.076-.077-.078-.075-.08-.074-.078-.075-.08-.073-.08-.07-.082-.072-.083-.07-.084-.068-.084-.068-.086-.067-.085-.065-.086-.065-.088-.064-.088-.062-.09-.06-.09-.062-.09-.06-.09-.057-.094-.057-.093-.056-.092-.055-.095-.054-.095-.053-.096-.05-.096-.052-.097-.05-.1-.048-.098-.047-.1-.046-.1-.045-.1-.043-.1-.042-.103-.042-.103-.04-.103-.038-.104-.038-.104-.036-.105-.035-.105-.034-.106-.033-.107-.03-.107-.03-.108-.03-.108-.027-.11-.026-.108-.025-.11-.024-.11-.022-.11-.02-.112-.02-.11-.018-.113-.016-.113-.015-.113-.014-.112-.01-.114-.012-.115-.01-.115-.008-.115-.006-.116-.005-.116-.005-.116-.002-.116v-.235l.002-.117.004-.116.004-.117.006-.115.008-.116.01-.114.01-.114.013-.114.015-.114.015-.113.016-.112.018-.11.02-.113.02-.11.022-.112.023-.11.024-.11.026-.11.027-.108.03-.108.03-.11.03-.106.032-.106.033-.106.035-.106.036-.105.038-.103.038-.104.04-.103.042-.102.042-.102.043-.1.045-.102.046-.1.047-.1.05-.097.048-.098.05-.1.052-.095.053-.096.054-.096.055-.095.056-.094.058-.093.06-.092.058-.09.06-.092.063-.09.063-.09.064-.087.065-.087.065-.086.067-.086.068-.084.068-.085.07-.082.07-.083.072-.08.073-.082.074-.08.073-.08.075-.077.077-.078.077-.076.078-.076.08-.074.08-.074.08-.072.082-.072.082-.07.084-.07.084-.07.085-.067.086-.066.087-.065.087-.065.09-.063.088-.063.09-.062.09-.06.092-.06.092-.058.092-.057.094-.056.094-.054.095-.054.096-.053.098-.053.097-.05.098-.05.1-.048.098-.048.1-.046.1-.045.103-.043.1-.042.104-.04.103-.04.104-.04.104-.037.105-.037.105-.034.106-.033.107-.033.108-.03.108-.03.108-.03.108-.027.11-.026.11-.024.11-.024.11-.022.11-.02.113-.02.112-.018.113-.017.113-.015.113-.013.114-.013.114-.01.115-.01.114-.008.116-.007.115-.005.117-.004.116-.002h.234zm-.21 2l-.09.002-.09.003-.09.005-.09.005-.09.006-.09.007-.09.01-.088.01-.088.01-.09.01-.087.014-.088.014-.087.016-.086.016-.087.017-.086.017-.085.02-.085.02-.085.02-.084.023-.083.023-.084.024-.082.025-.08.026-.083.028-.082.028-.08.03-.082.03-.08.03-.08.032-.078.033-.078.033-.08.035-.076.036-.078.036-.077.038-.076.038-.075.04-.076.04-.074.04-.074.043-.074.042-.073.044-.072.045-.07.046-.072.046-.07.048-.07.047-.07.05-.07.05-.068.05-.068.05-.067.053-.066.053-.066.053-.064.055-.064.056-.064.055-.063.06-.063.056-.06.058-.063.06-.06.06-.06.06-.06.06-.058.062-.057.062-.057.063-.056.065-.055.064-.054.065-.054.065-.054.067-.052.067-.05.067-.05.07-.05.068-.05.07-.048.07-.047.07-.047.072-.046.072-.044.072-.044.074-.044.073-.042.075-.042.075-.04.075-.04.075-.038.077-.037.077-.037.077-.036.08-.035.077-.034.078-.033.08-.032.08-.03.08-.03.08-.03.08-.028.082-.027.083-.026.083-.026.082-.024.083-.024.084-.022.085-.02.083-.02.085-.02.086-.02.086-.016.087-.016.086-.015.086-.014.087-.012.087-.01.09-.012.087-.01.09-.008.088-.007.09-.007.09-.005.09-.003.09-.003.09v.092l-.002.092v.09l.002.092.003.09.004.09.006.09.007.09.007.09.01.09.008.088.01.09.013.087.013.087.014.087.015.088.016.086.018.087.018.087.02.085.02.085.02.084.022.085.024.084.024.082.025.083.025.083.027.082.028.08.03.082.03.08.03.08.033.08.033.08.034.078.034.078.036.078.037.077.037.077.04.077.038.075.04.075.042.075.042.074.043.074.043.073.044.072.046.072.046.07.046.072.048.07.05.07.05.068.05.068.05.067.052.068.053.067.053.066.054.065.055.064.056.064.057.063.057.062.058.06.06.062.06.06.06.06.06.06.062.057.063.06.063.056.063.055.066.056.065.055.067.054.066.054.067.05.068.053.068.05.07.05.07.05.07.048.07.047.07.046.073.047.07.044.074.045.074.043.074.042.074.04.076.04.075.04.076.04.077.037.078.037.077.035.08.034.077.034.08.033.08.033.08.03.08.03.08.03.083.028.08.03.083.025.083.025.085.024.083.023.084.023.085.02.085.02.085.02.086.018.086.017.085.016.087.016.088.014.088.013.087.012.088.01.09.01.09.01.088.006.09.007.09.006.09.004.092.002h.09l.093.002h.092l.09-.003.092-.003.09-.004.09-.006.09-.006.09-.006.088-.01.09-.008.087-.01.088-.013.087-.013.088-.014.087-.015.086-.015.087-.017.086-.018.085-.02.085-.02.085-.02.084-.023.083-.023.084-.024.082-.025.082-.026.082-.03.08-.027.082-.03.08-.03.08-.03.08-.032.08-.032.08-.034.077-.035.078-.036.077-.037.077-.038.076-.04.076-.04.074-.04.074-.04.075-.042.073-.043.073-.044.072-.043.07-.046.073-.045.07-.047.07-.048.07-.05.07-.05.067-.05.068-.05.067-.052.067-.054.065-.053.064-.054.065-.055.062-.054.063-.057.063-.06.062-.057.06-.06.06-.058.06-.06.06-.062.058-.06.057-.064.057-.064.056-.064.055-.064.055-.065.053-.066.054-.066.052-.067.05-.067.052-.068.05-.07.048-.07.048-.07.047-.07.048-.07.045-.073.045-.072.044-.074.042-.074.042-.074.042-.075.04-.075.04-.075.038-.077.037-.077.037-.077.036-.078.035-.078.034-.078.033-.08.033-.08.03-.08.03-.08.03-.08.028-.082.027-.082.026-.083.027-.083.024-.083.024-.085.022-.084.02-.083.022-.085.02-.085.017-.086.017-.086.016-.086.015-.087.014-.086.013-.087.01-.088.012-.09.01-.09.008-.088.008-.09.006-.09.005-.09.003-.09.003-.09.002-.092v-.183l-.002-.09-.003-.092-.004-.09-.006-.09-.006-.09-.008-.09-.008-.09-.01-.088-.01-.088-.012-.09-.013-.087-.014-.087-.015-.087-.016-.087-.017-.087-.018-.085-.02-.085-.02-.085-.02-.084-.023-.084-.023-.084-.023-.083-.026-.082-.025-.083-.027-.083-.028-.08-.03-.082-.03-.08-.03-.08-.033-.08-.033-.08-.033-.078-.034-.078-.036-.08-.037-.076-.037-.077-.04-.077-.038-.075-.04-.075-.042-.075-.042-.074-.042-.072-.044-.074-.045-.072-.045-.072-.047-.07-.046-.072-.048-.07-.05-.07-.048-.068-.05-.07-.052-.066-.052-.067-.053-.067-.052-.065-.055-.066-.055-.065-.056-.064-.057-.062-.057-.062-.058-.062-.06-.06-.06-.06-.06-.06-.06-.06-.062-.058-.062-.057-.064-.06-.063-.054-.066-.055-.065-.054-.066-.053-.067-.053-.067-.052-.067-.05-.07-.052-.068-.05-.07-.05-.07-.046-.07-.048-.072-.046-.07-.045-.074-.044-.074-.044-.074-.043-.074-.043-.074-.04-.075-.04-.077-.04-.076-.04-.077-.037-.077-.036-.078-.036-.078-.035-.08-.034-.078-.034-.08-.032-.08-.03-.082-.03-.08-.03-.082-.028-.083-.028-.08-.026-.084-.025-.085-.024-.083-.023-.084-.023-.085-.02-.085-.02-.085-.02-.086-.018-.086-.018-.085-.016-.087-.015-.087-.013-.087-.013-.088-.012-.088-.01-.09-.01-.088-.01-.09-.006-.09-.006-.09-.005-.09-.004-.092-.002-.09-.002h-.185z"/>
      <path class="svg-player__gear-1" d="M529.925 187.08l.09.002.09.003.088.004.09.004.09.006.09.007.088.01.09.008.09.01.09.013.088.012.088.014.09.015.088.016.088.017.22 1.897.075.024.074.024.074.026.073.027.072.03.07.028.073.03.07.032.07.032.07.032.07.034.07.035.07.036.067.036.067.038.067.04.067.038.067.04.065.043.065.042.064.044.065.045.063.045.063.046.063.047.06.048.062.05.06.05.06.05.058.052.058.052.058.053 1.726-.753.06.07.057.07.058.07.056.07.056.073.054.072.054.073.052.074.052.074.05.076.05.076.05.076.048.077.047.078.047.078.045.08.043.08.044.078.042.08.04.08.04.083.04.083.04.082.036.083.037.083.036.085.033.084.034.084.032.085.03.085.03.086.03.088-1.504 1.143.017.078.016.077.013.078.013.077.013.078.01.078.01.078.01.078.007.078.007.078.006.078.005.08.004.077v.08l.003.077v.157l-.002.078v.08l-.005.077-.005.08-.006.077-.007.077-.008.078-.01.078-.01.078-.01.08-.014.077-.013.077-.014.078-.017.077-.017.076 1.505 1.144-.03.086-.03.086-.03.086-.033.085-.034.085-.034.084-.037.084-.037.083-.037.082-.04.083-.04.08-.04.083-.04.08-.043.08-.044.08-.044.08-.046.078-.047.08-.047.076-.048.077-.05.075-.05.076-.05.076-.052.075-.052.075-.054.073-.054.072-.056.072-.056.07-.057.072-.057.07-.06.07-1.725-.754-.057.053-.057.052-.06.052-.058.05-.06.05-.06.05-.062.047-.062.047-.062.047-.063.045-.064.045-.063.043-.065.043-.065.04-.066.042-.066.04-.067.038-.067.038-.068.038-.07.036-.068.035-.07.033-.07.033-.07.032-.07.03-.073.03-.07.03-.073.028-.073.027-.073.026-.073.024-.074.024-.22 1.896-.09.017-.088.018-.09.015-.087.014-.09.013-.088.01-.09.012-.09.01-.088.008-.09.007-.09.006-.09.005-.088.004-.09.003-.09.002h-.178l-.09-.002-.09-.003-.09-.004-.09-.005-.088-.006-.09-.007-.09-.01-.088-.008-.09-.01-.088-.012-.09-.013-.088-.014-.09-.015-.087-.017-.09-.016-.22-1.896-.074-.024-.074-.025-.074-.027-.073-.027-.072-.028-.07-.03-.072-.03-.07-.03-.072-.032-.07-.033-.07-.034-.07-.036-.067-.036-.07-.037-.067-.037-.067-.04-.067-.038-.067-.04-.065-.042-.065-.043-.064-.043-.065-.045-.063-.045-.063-.046-.062-.046-.062-.048-.06-.05-.06-.05-.06-.05-.058-.05-.06-.053-.056-.053-1.726.753-.058-.07-.06-.07-.056-.07-.056-.07-.055-.073-.054-.072-.054-.073-.052-.074-.052-.074-.05-.075-.05-.075-.05-.076-.048-.078-.047-.077-.046-.08-.046-.077-.043-.08-.043-.08-.043-.08-.04-.08-.04-.082-.04-.08-.04-.084-.036-.083-.037-.084-.035-.084-.035-.084-.033-.085-.033-.085-.03-.086-.03-.086-.03-.086 1.504-1.144-.017-.077-.015-.078-.015-.078-.013-.077-.012-.078-.012-.08-.01-.077-.01-.078-.007-.078-.007-.078-.006-.08-.005-.078-.003-.078-.003-.08-.003-.077v-.158l.002-.078.002-.08.003-.077.005-.08.006-.077.007-.078.008-.078.01-.078.01-.078.012-.078.012-.078.013-.077.015-.078.015-.077.017-.077-1.504-1.142.03-.087.03-.085.03-.086.034-.086.033-.085.035-.085.035-.084.037-.082.037-.083.04-.082.04-.082.04-.08.04-.08.044-.082.043-.08.044-.08.047-.077.046-.077.047-.078.048-.077.05-.076.05-.076.05-.075.052-.073.052-.074.054-.074.055-.073.056-.072.056-.07.057-.072.058-.07.058-.07 1.726.754.057-.053.058-.052.058-.052.06-.05.06-.05.06-.05.062-.047.06-.047.064-.046.063-.045.064-.044.063-.043.065-.042.065-.042.066-.04.066-.04.067-.04.068-.037.07-.037.067-.037.07-.035.07-.034.07-.032.07-.032.07-.03.072-.032.07-.03.073-.027.073-.026.073-.026.073-.024.074-.024.22-1.897.09-.017.088-.017.09-.016.088-.014.09-.012.088-.012.09-.01.09-.01.088-.01.09-.006.09-.006.09-.005.088-.005.09-.003h.09l.09-.002h.09zm-.094 3.178l-.063.087-.07.084-.072.08-.078.076-.08.07-.087.07-.09.06-.09.06-.096.05-.098.048-.1.042-.103.036-.06.02-.048.016-.046.016-.047.018-.046.017-.046.018-.045.02-.045.02-.045.02-.045.02-.044.022-.044.022-.043.023-.045.023-.044.025-.04.024-.044.026-.042.026-.042.026-.04.026-.042.028-.042.03-.04.028-.04.03-.04.03-.038.03-.04.03-.038.034-.038.032-.038.033-.036.033-.047.043-.08.07-.082.065-.085.06-.09.057-.09.052-.095.047-.097.04-.1.038-.1.03-.102.027-.103.02-.104.014-.098.01.033.064.042.1.038.1.032.103.026.106.02.106.016.107.01.107.002.107-.003.108-.007.108-.014.107-.02.106-.015.063-.01.05-.01.05-.008.052-.008.05-.008.05-.007.05-.006.052-.006.05-.005.052-.004.05-.004.053-.002.05-.002.05V194.62l.002.052.002.05.004.052.003.052.004.05.005.052.005.05.007.05.007.05.007.052.01.05.008.052.01.05.014.062.02.106.013.107.008.108.004.108-.003.108-.008.108-.015.107-.02.106-.027.106-.032.103-.038.1-.042.1-.033.064.098.01.104.014.104.02.103.026.1.032.1.036.097.042.094.046.092.052.09.056.085.06.084.067.08.07.046.042.036.033.038.033.038.033.038.032.04.03.04.032.04.03.04.03.038.028.042.03.04.027.042.027.042.026.042.027.043.025.04.024.045.025.044.022.04.023.046.022.045.022.045.02.045.02.045.02.046.02.047.018.045.017.047.018.045.016.047.015.06.02.104.036.1.043.098.047.095.053.09.057.09.063.086.067.08.072.08.076.072.08.07.084.063.087.005.005.004-.006.063-.088.07-.084.072-.08.078-.076.082-.072.085-.067.09-.063.09-.057.096-.053.098-.047.1-.042.103-.035.06-.02.048-.016.047-.017.046-.017.045-.018.047-.02.046-.018.044-.02.045-.02.045-.02.044-.023.044-.022.044-.023.044-.023.043-.025.04-.025.044-.026.043-.026.04-.026.042-.027.04-.028.04-.028.042-.03.04-.03.04-.03.04-.03.037-.032.038-.032.04-.033.036-.032.037-.033.048-.044.08-.07.082-.065.086-.06.09-.057.09-.05.096-.047.097-.04.098-.038.1-.03.102-.027.104-.02.104-.015.097-.008-.032-.065-.043-.1-.037-.1-.032-.103-.025-.105-.02-.105-.016-.107-.01-.108-.004-.107.003-.108.007-.108.014-.108.02-.106.015-.064.01-.05.01-.052.008-.05.008-.05.008-.05.007-.052.006-.052.006-.05.005-.05.005-.052.003-.05.002-.052.002-.05V194.416l-.002-.052-.002-.05-.003-.052-.004-.05-.004-.05-.005-.052-.005-.05-.007-.052-.007-.05-.007-.052-.008-.05-.01-.05-.01-.05-.014-.065-.02-.105-.013-.107-.008-.108-.004-.107.004-.108.01-.108.014-.106.02-.105.027-.105.033-.103.037-.1.043-.1.032-.064-.097-.01-.104-.014-.104-.02-.102-.027-.1-.03-.1-.037-.096-.042-.095-.047-.092-.05-.09-.057-.085-.06-.082-.066-.08-.07-.047-.044-.036-.034-.037-.032-.038-.032-.04-.033-.04-.032-.038-.03-.04-.03-.04-.03-.04-.03-.04-.028-.043-.028-.042-.027-.04-.026-.044-.027-.043-.026-.04-.024-.044-.024-.044-.025-.044-.023-.044-.022-.043-.022-.045-.02-.045-.022-.044-.02-.046-.018-.047-.02-.046-.017-.045-.016-.047-.016-.047-.016-.06-.02-.103-.036-.1-.042-.1-.047-.094-.052-.09-.058-.09-.062-.085-.068-.082-.07-.078-.077-.073-.08-.07-.085-.063-.087-.005-.006-.004.006zm.095.774l.09.003.088.006.087.01.087.01.088.012.087.014.084.017.087.02.085.02.082.023.084.025.082.028.08.03.08.03.08.033.077.036.076.035.074.04.076.04.074.042.072.044.07.044.07.047.067.048.067.05.067.05.066.055.062.054.06.055.062.056.058.058.058.06.056.062.053.06.054.066.052.066.048.066.05.067.046.07.045.07.042.07.043.074.04.074.038.072.037.076.036.078.034.08.03.075.03.08.03.08.024.08.025.083.02.083.02.083.02.085.015.083.014.085.01.088.01.09.008.084.006.088.003.09v.173l-.003.09-.006.087-.007.085-.01.088-.01.088-.015.086-.016.082-.02.086-.02.083-.02.084-.026.083-.025.08-.03.08-.03.08-.03.078-.034.078-.036.078-.037.077-.037.072-.04.074-.044.073-.042.07-.046.07-.048.07-.048.066-.05.067-.05.065-.055.064-.054.06-.057.063-.058.06-.058.057-.06.06-.063.054-.06.053-.066.053-.068.053-.067.05-.068.048-.07.047-.07.045-.07.043-.076.042-.076.04-.074.038-.077.037-.078.034-.08.034-.08.03-.078.03-.083.026-.084.026-.083.022-.084.02-.085.02-.087.017-.085.015-.087.013-.088.01-.087.008-.09.006-.09.003h-.176l-.09-.003-.09-.006-.087-.008-.088-.01-.087-.013-.086-.014-.088-.016-.085-.02-.083-.02-.084-.023-.083-.024-.083-.027-.08-.03-.08-.03-.078-.033-.078-.035-.08-.037-.073-.038-.074-.04-.073-.042-.07-.043-.073-.045-.07-.047-.067-.047-.067-.05-.068-.053-.063-.052-.064-.054-.06-.055-.062-.058-.06-.06-.056-.06-.057-.06-.055-.064-.05-.063-.052-.064-.05-.067-.05-.068-.047-.068-.044-.07-.045-.072-.042-.07-.04-.074-.04-.075-.036-.076-.035-.075-.034-.078-.032-.082-.03-.08-.026-.076-.026-.083-.024-.083-.023-.083-.02-.082-.018-.083-.017-.088-.014-.085-.01-.086-.01-.085-.008-.087-.005-.09-.004-.085v-.18l.004-.084.005-.09.008-.087.01-.086.01-.084.015-.086.017-.088.018-.083.02-.084.022-.083.024-.082.026-.08.027-.08.03-.08.03-.08.035-.078.034-.074.036-.076.04-.076.04-.072.04-.072.046-.073.044-.07.046-.067.05-.07.05-.067.052-.064.052-.063.055-.064.057-.06.058-.062.06-.06.06-.055.06-.056.064-.055.063-.054.067-.052.067-.05.067-.047.07-.046.072-.045.07-.043.074-.042.075-.04.075-.038.078-.037.078-.035.077-.032.08-.03.082-.03.082-.027.083-.024.083-.023.084-.02.087-.02.084-.017.087-.014.088-.013.087-.01.088-.01.09-.005.087-.003h.18zm-.128 2h-.037l-.037.003-.037.004-.037.003-.037.005-.037.006-.035.007-.035.01-.035.008-.035.01-.035.01-.034.01-.034.013-.033.014-.034.014-.033.014-.032.016-.03.016-.032.017-.03.018-.03.018-.03.02-.03.02-.03.02-.028.02-.028.022-.027.023-.027.024-.026.024-.026.024-.025.025-.023.025-.024.027-.024.025-.023.027-.022.028-.022.03-.02.028-.02.03-.02.03-.02.03-.017.03-.017.032-.017.032-.016.032-.015.033-.015.033-.013.033-.013.034-.01.035-.012.034-.01.036-.01.035-.008.036-.008.036-.007.035-.006.037-.006.037-.004.037-.003.037-.003.038v.038l-.002.04v.037l.002.038.003.038.003.038.004.038.005.037.005.037.007.036.008.036.01.036.008.036.01.035.01.036.013.034.014.034.013.033.015.034.015.033.016.033.016.03.016.033.018.03.02.03.018.03.02.03.02.028.023.03.022.027.022.027.023.027.024.025.024.025.026.025.026.025.026.023.027.023.027.023.028.02.03.022.028.02.03.02.03.02.03.017.03.017.03.016.033.016.033.015.033.014.033.013.032.013.034.012.034.01.035.012.035.01.035.008.036.008.036.007.037.006.036.004.036.005.037.002.037.002.037.002h.076l.037-.002.038-.002.037-.003.036-.006.038-.005.036-.007.036-.007.035-.008.036-.01.035-.008.035-.01.034-.012.034-.012.033-.013.034-.014.033-.015.032-.016.03-.017.032-.016.03-.018.03-.02.03-.018.03-.02.03-.02.028-.02.028-.023.027-.024.027-.023.026-.023.026-.025.025-.025.024-.025.024-.026.023-.028.024-.027.022-.028.02-.03.022-.027.02-.03.02-.03.018-.03.018-.03.017-.033.018-.03.016-.034.015-.032.013-.033.013-.033.013-.034.01-.034.012-.035.01-.034.01-.036.008-.036.008-.036.007-.036.006-.037.006-.037.004-.037.004-.037.002-.038v-.038l.002-.038v-.04l-.002-.038-.002-.038-.004-.037-.004-.038-.005-.038-.005-.037-.007-.036-.008-.037-.008-.036-.01-.035-.01-.036-.01-.034-.013-.035-.014-.034-.013-.033-.014-.033-.016-.033-.016-.032-.017-.032-.016-.032-.018-.03-.02-.03-.018-.03-.02-.03-.02-.03-.022-.028-.022-.028-.023-.027-.022-.026-.024-.028-.025-.025-.026-.025-.026-.024-.026-.024-.027-.023-.027-.022-.028-.02-.028-.022-.03-.02-.03-.02-.03-.02-.03-.018-.03-.017-.03-.016-.033-.016-.033-.016-.033-.014-.033-.014-.032-.013-.034-.01-.034-.012-.035-.01-.034-.01-.035-.01-.035-.007-.036-.006-.036-.006-.037-.005-.035-.004-.037-.005-.038-.002-.037-.002h-.076z"/>
      <path d="M509.548 194.54v42.4" fill="none" stroke="#000" stroke-width="2" stroke-linejoin="round"/>
      <path d="M637.207 170.84c0-2.45-1.988-4.44-4.438-4.44H503.285c-2.45 0-4.44 1.99-4.44 4.44v13.315h138.36V170.84z" fill="#fff"/>
      <path d="M632.883 166.402l.114.005.113.007.112.01.112.012.11.016.11.018.11.02.107.025.108.026.105.03.105.03.104.034.102.036.102.04.1.04.1.043.096.046.097.047.094.05.093.052.093.054.09.056.09.06.088.06.086.063.085.065.082.067.08.07.08.07.08.072.075.074.074.078.074.078.07.08.07.08.066.084.065.084.063.087.06.088.06.09.057.09.054.093.05.094.052.095.048.096.045.097.043.1.04.1.04.1.036.103.034.104.03.105.03.106.026.108.023.107.02.11.02.11.015.11.013.11.01.113.007.113.004.115v13.429h-138.36V170.84l.003-.115.003-.114.007-.112.01-.112.013-.112.015-.11.02-.11.02-.11.023-.106.027-.107.03-.105.03-.105.034-.104.037-.102.038-.1.04-.102.045-.1.045-.096.048-.097.05-.096.053-.093.054-.09.057-.092.06-.09.06-.087.063-.086.064-.084.067-.083.07-.082.07-.08.074-.077.074-.077.076-.073.078-.073.08-.07.08-.07.084-.066.085-.065.087-.063.088-.06.09-.06.09-.056.092-.055.094-.053.096-.05.096-.048.098-.047.1-.043.1-.04.1-.04.103-.036.104-.034.104-.03.107-.03.107-.025.108-.024.11-.02.108-.018.11-.016.112-.012.113-.01.113-.007.113-.005H632.883zm-129.584 2h-.078l-.063.002-.064.004-.062.006-.06.007-.06.01-.06.01-.06.01-.06.013-.058.015-.058.015-.057.017-.055.02-.056.018-.057.02-.054.024-.055.023-.054.026-.052.027-.052.027-.05.03-.052.03-.05.03-.05.033-.047.033-.048.035-.048.036-.046.037-.044.038-.045.04-.043.04-.042.04-.04.043-.04.043-.04.045-.038.045-.037.046-.036.046-.033.048-.034.048-.032.05-.03.05-.03.05-.03.052-.027.05-.026.054-.025.054-.024.054-.022.055-.02.055-.02.056-.02.056-.016.058-.016.058-.014.058-.013.058-.01.06-.01.06-.01.06-.007.062-.005.062-.004.063-.002.063V182.155h134.36v-11.38l-.004-.063-.004-.062-.005-.06-.007-.063-.01-.06-.01-.06-.01-.06-.013-.06-.014-.058-.015-.058-.017-.057-.018-.057-.02-.056-.02-.055-.024-.056-.024-.053-.024-.052-.026-.053-.028-.053-.03-.052-.03-.05-.03-.05-.032-.05-.033-.047-.037-.048-.035-.047-.037-.045-.037-.045-.04-.044-.04-.042-.04-.042-.042-.04-.043-.04-.044-.04-.045-.04-.045-.035-.047-.035-.048-.035-.048-.033-.05-.033-.05-.03-.05-.03-.05-.03-.053-.027-.053-.026-.054-.025-.054-.023-.054-.023-.056-.022-.056-.02-.056-.018-.057-.017-.058-.015-.06-.015-.06-.013-.058-.01-.06-.01-.06-.01-.062-.006-.062-.006-.062-.004-.063-.002H503.3z"/>
      <path d="M637.156 240.148c0 2.446-1.986 4.432-4.432 4.432H503.192c-2.446 0-4.432-1.986-4.432-4.432v-32.5h138.396v32.5z" fill="#fff"/>
      <path d="M637.156 240.148v.114l-.006.114-.007.113-.01.11-.012.112-.015.11-.018.11-.02.11-.024.107-.026.105-.03.106-.03.105-.034.104-.036.1-.038.103-.042.1-.044.098-.045.1-.05.095-.05.095-.05.093-.056.093-.056.09-.06.09-.06.087-.063.086-.065.084-.066.083-.07.08-.07.08-.072.078-.074.076-.077.076-.076.072-.08.07-.08.07-.084.066-.085.065-.086.062-.088.06-.09.06-.09.056-.092.055-.094.052-.095.05-.095.048-.097.045-.1.044-.1.04-.1.04-.103.035-.103.034-.105.032-.106.028-.105.026-.108.024-.11.02-.108.02-.112.014-.11.013-.113.01-.113.007-.113.005H503.077l-.114-.006-.113-.007-.11-.01-.112-.013-.11-.015-.11-.02-.108-.02-.108-.024-.107-.026-.105-.028-.105-.03-.104-.035-.1-.036-.102-.038-.1-.04-.1-.044-.096-.045-.097-.048-.094-.05-.093-.052-.092-.055-.09-.057-.09-.057-.088-.06-.086-.064-.083-.066-.083-.067-.08-.068-.08-.072-.08-.072-.075-.075-.075-.075-.073-.078-.07-.08-.07-.08-.066-.083-.065-.085-.06-.087-.062-.088-.06-.09-.056-.09-.054-.092-.052-.093-.05-.095-.048-.096-.046-.1-.043-.097-.042-.1-.038-.102-.037-.1-.033-.105-.03-.104-.03-.105-.026-.106-.023-.11-.02-.108-.018-.11-.016-.11-.013-.11-.01-.113-.007-.114-.004-.114-.002-.114v-32.5h138.396v32.5zm-136.396-30.5v30.564l.004.062.004.063.005.062.007.06.01.06.01.06.01.06.013.058.014.06.016.056.016.057.018.057.02.057.02.054.023.055.025.054.025.054.025.053.028.052.03.05.028.05.033.05.032.05.033.048.035.048.036.048.036.046.037.044.04.044.04.043.04.042.042.04.043.04.044.04.045.038.046.037.046.035.047.035.048.034.05.032.05.03.05.03.05.03.053.027.052.026.054.026.053.024.055.022.055.02.056.02.056.02.056.016.058.015.058.015.06.013.06.012.058.01.06.008.062.007.06.006.064.004.063.002h129.658l.063-.003.064-.004.06-.006.062-.007.06-.008.06-.01.06-.012.058-.012.06-.015.056-.015.057-.017.056-.017.056-.02.055-.02.054-.024.053-.024.053-.025.053-.025.05-.028.052-.028.05-.03.05-.032.05-.032.048-.034.048-.035.045-.035.046-.037.045-.038.043-.04.043-.04.043-.04.04-.042.04-.043.04-.044.038-.044.038-.046.036-.047.035-.047.032-.047.032-.05.03-.05.03-.05.03-.05.027-.053.027-.053.025-.053.024-.054.022-.054.02-.057.02-.056.02-.056.016-.056.016-.058.014-.058.013-.058.01-.06.01-.06.01-.06.006-.06.006-.064.003-.06.002-.064v-30.564H500.76z"/>
      <g>
        <path d="M617.23 243.768h-98.405l9.84-23.706h78.724l9.84 23.706z" fill="#fff"/>
        <path d="M617.23 243.768h-98.405l9.84-23.706h78.724l9.84 23.706zM530 222.062l-8.18 19.706h92.414l-8.18-19.706H530z"/>
        <circle cx="537.209" cy="234.094" r="4.688" fill="#fff"/>
        <path d="M537.27 229.406h.06l.06.003.06.002.06.003.06.004.06.004.06.006.116.013.117.017.116.02.114.02.114.026.113.027.112.03.11.034.11.035.11.038.106.04.106.044.104.046.103.048.103.05.1.054.1.055.097.058.096.06.094.062.093.064.09.068.09.068.088.07.087.074.084.074.083.077.08.08.08.08.076.082.074.085.073.086.07.087.07.09.065.09.065.093.062.095.06.096.056.097.056.1.053.1.05.102.048.103.046.105.042.106.04.107.04.108.035.11.033.11.03.113.028.113.024.114.022.115.02.115.016.117.014.118.005.06.004.058.004.06.004.06.002.06.002.06v.06l.002.06v.062l-.002.06-.002.06-.002.06-.004.06-.004.06-.005.06-.006.058-.014.118-.016.118-.02.115-.022.115-.024.114-.028.113-.03.112-.033.11-.036.11-.037.108-.04.107-.044.106-.047.105-.048.103-.05.102-.053.1-.056.1-.057.096-.06.096-.063.094-.065.093-.066.09-.07.09-.07.088-.072.086-.075.086-.077.082-.08.08-.08.08-.082.076-.083.074-.086.073-.087.072-.09.068-.09.067-.093.064-.094.063-.096.06-.098.058-.1.056-.1.053-.1.05-.104.048-.104.046-.106.043-.107.04-.108.04-.11.034-.11.034-.11.03-.114.028-.114.025-.115.022-.117.018-.117.017-.117.013-.06.006-.06.005-.06.003-.06.003-.06.003h-.06l-.06.002h-.18l-.062-.003-.06-.004-.06-.003-.06-.004-.058-.006-.06-.006-.117-.013-.117-.017-.116-.02-.115-.02-.114-.026-.112-.027-.11-.03-.112-.034-.11-.034-.108-.038-.107-.04-.105-.044-.104-.046-.102-.048-.102-.05-.1-.054-.1-.055-.097-.057-.097-.06-.094-.062-.094-.063-.09-.067-.09-.068-.088-.07-.086-.074-.084-.074-.083-.077-.08-.08-.08-.08-.075-.08-.075-.086-.073-.085-.07-.087-.07-.09-.065-.09-.065-.094-.062-.094-.06-.096-.057-.097-.056-.1-.053-.1-.05-.1-.048-.104-.046-.105-.043-.106-.04-.107-.04-.108-.035-.11-.033-.11-.03-.112-.03-.113-.024-.114-.022-.115-.02-.115-.015-.117-.015-.117-.005-.06-.005-.06-.004-.058-.003-.06-.002-.06-.002-.06v-.06l-.002-.06.002-.062v-.06l.003-.06.002-.06.004-.06.005-.06.005-.06.005-.058.014-.118.015-.117.02-.115.02-.115.026-.114.03-.113.03-.112.032-.11.036-.11.038-.107.04-.107.044-.106.046-.105.048-.103.05-.102.053-.1.056-.1.057-.096.06-.096.062-.095.065-.092.066-.09.07-.09.07-.087.072-.086.075-.085.076-.082.08-.08.08-.08.082-.076.084-.074.086-.073.088-.07.09-.07.09-.066.093-.063.093-.062.096-.06.097-.058.1-.055.1-.053.1-.052.104-.048.105-.046.106-.043.108-.04.108-.038.11-.035.11-.033.112-.03.113-.028.115-.025.115-.02.116-.02.117-.017.117-.013.06-.006.06-.005.06-.005.058-.003.06-.003.06-.003h.182zm-.096 2h-.035l-.036.002h-.034l-.035.003-.034.004-.033.002-.028.003-.075.008-.067.01-.066.01-.065.012-.065.015-.065.015-.063.018-.064.018-.062.02-.062.022-.06.024-.06.024-.06.026-.06.028-.058.03-.057.03-.056.03-.056.034-.055.034-.054.036-.054.037-.052.04-.053.04-.05.04-.048.04-.05.044-.046.045-.047.044-.046.046-.044.048-.043.048-.042.05-.04.05-.04.052-.038.052-.037.053-.036.055-.035.055-.034.055-.03.057-.032.058-.03.058-.026.06-.026.06-.025.06-.023.06-.022.062-.02.063-.02.063-.016.064-.016.064-.014.065-.013.067-.01.066-.01.067-.008.073-.003.028-.003.036-.003.034-.002.035-.002.034v.034l-.002.035v.069l.002.034v.035l.003.033.002.035.002.034.005.063.008.073.01.067.01.066.013.067.014.065.016.064.017.064.02.063.02.063.02.06.024.062.025.06.026.06.027.06.03.057.03.058.03.057.035.055.034.055.036.055.037.053.037.052.04.052.04.05.043.05.043.048.044.048.045.046.046.046.047.044.05.043.05.042.05.04.05.04.052.037.054.037.053.036.055.034.056.033.057.032.058.03.058.028.06.028.06.026.06.024.06.023.062.02.063.022.064.018.063.018.065.015.064.014.066.013.066.01.067.01.075.01.06.004.035.003.035.002h.069l.035.002H537.28l.035-.002h.034l.034-.003.035-.003.032-.002.027-.003.074-.01.067-.01.067-.01.066-.013.064-.014.065-.015.063-.018.063-.018.063-.02.063-.023.06-.024.06-.024.06-.026.06-.028.058-.03.058-.03.057-.03.056-.034.056-.034.054-.036.053-.037.053-.038.05-.04.052-.04.05-.043.048-.043.047-.044.047-.046.045-.046.044-.048.042-.048.042-.05.04-.05.04-.052.038-.052.037-.053.035-.055.034-.055.032-.055.032-.057.03-.058.03-.058.027-.06.027-.058.025-.062.023-.06.022-.062.02-.063.02-.063.016-.063.016-.065.013-.065.013-.066.01-.065.01-.067.008-.073.003-.028.003-.035.002-.034.002-.035.002-.034v-.036l.002-.036V234.024l-.002-.035-.002-.035-.002-.035-.002-.034-.003-.035-.003-.027-.008-.073-.01-.067-.01-.066-.013-.066-.014-.064-.017-.065-.017-.062-.02-.063-.02-.063-.02-.06-.024-.062-.025-.06-.026-.06-.026-.06-.03-.057-.03-.058-.032-.057-.032-.055-.035-.055-.036-.055-.038-.053-.038-.053-.04-.05-.04-.05-.042-.05-.043-.05-.045-.047-.045-.046-.047-.045-.047-.046-.05-.043-.048-.04-.05-.04-.053-.04-.052-.04-.053-.036-.054-.036-.055-.034-.055-.033-.057-.03-.057-.03-.057-.03-.06-.028-.06-.026-.06-.024-.06-.024-.062-.02-.06-.022-.065-.018-.063-.018-.065-.015-.065-.015-.065-.012-.066-.01-.066-.01-.074-.01-.028-.002-.034-.002-.034-.003h-.035l-.035-.002h-.035l-.035-.002h-.072z"/>
        <circle cx="597.072" cy="234.094" r="4.688" fill="#fff"/>
        <path d="M597.133 229.406h.06l.06.003.06.002.06.003.06.004.06.004.058.006.12.013.116.017.116.02.115.02.114.026.113.027.112.03.11.034.11.035.11.038.106.04.107.044.104.046.104.048.102.05.1.054.1.055.097.058.096.06.093.062.093.064.09.068.09.068.088.07.086.074.084.074.082.077.08.08.08.08.076.082.075.085.073.086.07.087.07.09.065.09.065.093.062.095.06.096.057.097.054.1.053.1.05.102.05.103.045.105.043.106.04.107.04.108.035.11.033.11.03.113.028.113.025.114.022.115.02.115.016.117.013.118.006.06.005.058.004.06.005.06.002.06.002.06v.242l-.003.06-.002.06-.004.06-.003.06-.005.06-.006.058-.013.118-.016.118-.02.115-.022.115-.024.114-.027.113-.03.112-.033.11-.036.11-.038.108-.04.107-.044.106-.046.105-.048.103-.05.102-.054.1-.055.1-.058.096-.06.096-.062.094-.065.093-.066.09-.07.09-.07.088-.073.086-.075.086-.077.082-.078.08-.08.08-.083.076-.084.074-.086.073-.088.072-.09.068-.09.067-.093.064-.094.063-.097.06-.098.058-.1.056-.1.053-.1.05-.104.048-.103.046-.106.043-.106.04-.11.04-.108.034-.11.034-.113.03-.112.028-.113.025-.115.022-.116.018-.117.017-.12.013-.058.006-.06.005-.06.003-.058.003-.06.003h-.06l-.06.002h-.182l-.06-.003-.06-.004-.06-.003-.06-.004-.06-.006-.06-.006-.116-.013-.117-.017-.117-.02-.115-.02-.114-.026-.113-.027-.11-.03-.11-.034-.11-.034-.11-.038-.106-.04-.106-.044-.104-.046-.103-.048-.1-.05-.102-.054-.098-.055-.098-.057-.096-.06-.094-.062-.093-.063-.092-.067-.09-.068-.087-.07-.085-.074-.084-.074-.082-.077-.08-.08-.08-.08-.075-.08-.075-.086-.073-.085-.07-.087-.07-.09-.065-.09-.065-.094-.062-.094-.06-.096-.057-.097-.056-.1-.053-.1-.05-.1-.048-.104-.047-.105-.043-.106-.04-.107-.04-.108-.035-.11-.033-.11-.03-.112-.028-.113-.025-.114-.023-.115-.02-.115-.015-.117-.014-.117-.005-.06-.005-.06-.004-.058-.004-.06-.002-.06-.002-.06-.002-.06v-.122l.002-.06.002-.06.002-.06.004-.06.004-.06.005-.06.005-.058.014-.118.016-.117.02-.115.02-.115.026-.114.028-.113.03-.112.033-.11.036-.11.04-.107.04-.107.043-.106.046-.105.047-.103.05-.102.053-.1.056-.1.057-.096.06-.096.062-.095.065-.092.066-.09.07-.09.07-.087.072-.086.075-.085.076-.082.078-.08.08-.08.083-.076.085-.074.086-.073.09-.07.088-.07.09-.066.094-.063.094-.062.096-.06.098-.058.098-.055.1-.053.103-.052.104-.048.104-.046.106-.043.107-.04.11-.038.11-.035.11-.033.11-.03.114-.028.114-.025.115-.02.116-.02.116-.017.117-.013.06-.006.06-.005.058-.005.06-.003.06-.003.06-.003h.182zm-.096 2h-.035l-.035.002h-.034l-.035.003-.034.004-.034.002-.028.003-.074.008-.067.01-.065.01-.065.012-.065.015-.065.015-.064.018-.063.018-.062.02-.06.023-.06.02-.062.026-.06.026-.06.028-.057.03-.056.03-.057.03-.056.034-.054.034-.054.036-.053.037-.054.04-.05.04-.052.04-.05.04-.048.044-.047.044-.047.046-.046.046-.044.048-.044.05-.042.048-.04.05-.04.05-.038.054-.037.053-.036.055-.035.055-.033.056-.032.055-.03.058-.03.058-.027.06-.025.06-.025.06-.023.062-.022.06-.02.062-.02.064-.016.064-.017.064-.014.064-.014.067-.01.066-.01.067-.008.073-.003.028-.003.035-.002.035-.002.035-.002.034v.034l-.002.035V234.163l.004.07.004.07.006.06.008.074.01.067.01.066.013.068.013.064.016.064.016.064.02.064.02.062.02.06.024.062.025.06.026.06.028.06.03.057.03.058.03.056.034.055.035.055.036.055.037.053.038.052.04.052.04.05.04.05.044.048.045.048.046.046.046.046.046.044.048.042.05.043.05.04.052.04.053.037.052.037.054.036.055.034.057.033.057.032.057.03.06.028.058.027.06.027.06.024.06.023.063.02.064.022.062.018.064.018.065.015.064.014.065.013.066.01.068.01.075.01.06.004.035.003.035.002h.069l.036.002H597.143l.034-.002h.035l.035-.003.035-.003.033-.002.027-.003.075-.01.067-.01.066-.01.066-.013.064-.014.065-.015.063-.018.063-.018.064-.02.062-.022.06-.024.06-.024.06-.027.06-.027.057-.03.058-.03.058-.03.056-.034.055-.034.053-.036.054-.037.052-.04.05-.038.05-.04.05-.044.05-.042.046-.044.047-.046.045-.046.044-.048.043-.048.042-.05.04-.05.04-.052.038-.052.038-.054.035-.054.035-.055.033-.056.03-.057.03-.057.03-.06.028-.058.026-.06.024-.06.024-.06.022-.063.02-.062.02-.063.016-.063.016-.065.014-.065.012-.066.012-.065.01-.067.007-.073.003-.028.003-.034.002-.034.002-.037.002-.034V233.986l-.003-.035-.002-.036-.002-.035-.003-.034-.003-.027-.008-.073-.01-.067-.012-.066-.012-.066-.014-.064-.016-.065-.017-.062-.02-.063-.02-.062-.022-.062-.023-.06-.025-.06-.026-.06-.028-.06-.03-.058-.03-.057-.03-.056-.033-.057-.035-.055-.035-.054-.038-.054-.038-.053-.04-.05-.04-.05-.042-.05-.043-.05-.044-.047-.045-.046-.047-.046-.047-.044-.05-.043-.05-.04-.05-.04-.05-.04-.054-.04-.053-.036-.054-.036-.056-.034-.056-.033-.057-.03-.056-.03-.058-.03-.06-.028-.06-.026-.06-.025-.06-.022-.062-.02-.062-.022-.064-.018-.063-.018-.065-.015-.065-.015-.065-.012-.066-.01-.067-.01-.074-.01-.028-.002-.034-.002-.033-.003h-.035l-.035-.002h-.034l-.035-.002H597.037z"/>
      </g>
      <g>
        <path d="M567.79 134.048l13.532 18.232h-27.066l13.533-18.232z" fill="#fff"/>
        <path d="M581.322 152.28h-27.066l13.533-18.232 13.532 18.232zm-23.09-2h19.114l-9.557-12.877-9.56 12.877z"/>
        <path d="M554.256 156.114h27.066" fill="none" stroke="#000" stroke-width="2" stroke-linejoin="round"/>
      </g>
    </g>
    <path d="M665.683 121.394h-195.55v-36.27h195.55v36.27zm-193.55-34.27v32.27h191.55v-32.27h-191.55z"/>
    <g class="svg-player__play">
      <path fill="#fff" d="M537.8 85.123h31.187v36.272H537.8z"/>
      <path d="M568.987 121.394H537.8v-36.27h31.187v36.27zM539.8 87.124v32.27h27.187v-32.27H539.8z"/>
      <path d="M562.117 103.258l-14.394 9.88v-19.76l14.394 9.88zm-12.394 6.082l8.86-6.082-8.86-6.08v12.162z"/>
    </g>
    <g class="svg-player__next">
      <path fill="#fff" d="M595.37 85.123h31.188v36.272H595.37z"/>
      <path d="M626.558 121.394H595.37v-36.27h31.188v36.27zm-29.188-34.27v32.27h27.188v-32.27H597.37z"/>
      <path d="M618.16 94.342v17.832" fill="none" stroke="#000" stroke-width="2" stroke-linejoin="round"/>
      <path d="M618.16 103.258l-14.393 9.88v-19.76l14.394 9.88zm-12.393 6.082l8.86-6.082-8.86-6.08v12.162z"/>
    </g>
    <g class="svg-player__prev">
      <path fill="#fff" d="M509.318 85.123h31.188v36.272h-31.188z"/>
      <path d="M540.506 121.394h-31.188v-36.27h31.188v36.27zm-29.188-34.27v32.27h27.188v-32.27h-27.188z"/>
      <path d="M517.715 94.342v17.832" fill="none" stroke="#000" stroke-width="2" stroke-linejoin="round"/>
      <path d="M532.11 113.138l-14.395-9.88 14.394-9.88v19.76zm-10.86-9.88l8.86 6.082V97.177l-8.86 6.08z"/>
    </g>
    <g class="svg-player__pause">
      <path fill="#fff" d="M566.37 85.123h31.188v36.272H566.37z"/>
      <path d="M597.557 121.394H566.37v-36.27h31.187v36.27zm-29.187-34.27v32.27h27.187v-32.27H568.37z"/>
      <g fill="none" stroke="#000" stroke-width="2" stroke-linejoin="round">
        <path d="M578.305 94.342v17.832M585.404 94.342v17.832"/>
      </g>
    </g>
    <g>
      <path d="M471.89 283.567H290.866V84.924H471.89v198.643zM292.866 86.924v194.643H469.89V86.924H292.866z"/>
      <g stroke="#000" stroke-width="2">
        <circle cx="381.378" cy="184.245" r="59.85" fill="#fff"/>
        <circle cx="381.378" cy="184.245" r="67.899" fill="none"/>
        <circle class="player__left-speaker" cx="381.378" cy="184.245" r="17.452" fill="#fff"/>
      </g>
    </g>
    <g>
      <path d="M844.712 283.567H663.688V84.924h181.024v198.643zM665.688 86.924v194.643h177.024V86.924H665.688z"/>
      <g stroke="#000" stroke-width="2">
        <circle cx="754.2" cy="184.245" r="59.85" fill="#fff"/>
        <circle cx="754.2" cy="184.245" r="67.899" fill="none"/>
        <circle class="player__right-speaker" cx="754.2" cy="184.245" r="17.452" fill="#fff"/>
      </g>
    </g>
    <g>
      <path fill="#fff" d="M699.438 34.802h20.217V86.69h-20.217z"/>
      <path d="M719.655 86.69h-20.217V34.8h20.217V86.69zM701.438 36.8V84.69h16.217V36.8h-16.217z"/>
      <path fill="#fff" d="M415.55 34.802h20.18V86.69h-20.18z"/>
      <path d="M435.73 86.69h-20.18V34.8h20.18V86.69zM417.55 36.8V84.69h16.18V36.8h-16.18z"/>
      <path d="M720.028 47.273V27.555H415.55v19.718h304.478z" fill="#fff"/>
      <path d="M720.028 47.273H415.55V27.555h304.478v19.718zM417.55 29.555v15.718h300.478V29.555H417.55z"/>
    </g>
  </g>
</svg>
